<svg xmlns="http://www.w3.org/2000/svg" viewBox="0 0 980 621" width="980" height="621"><rect width="980" height="621" fill="#ffffff"/><polygon points="119.8,33.6 159.4,56.5 114.8,82.3 75.2,59.4" fill="#dbeafe" fill-opacity="0.5" stroke="#94a3b8" stroke-width="0.8"/><polygon points="75.2,59.4 114.8,82.3 70.2,108.0 30.5,85.1" fill="#dbeafe" fill-opacity="0.5" stroke="#94a3b8" stroke-width="0.8"/><polygon points="159.4,56.5 199.1,79.4 154.5,105.2 114.8,82.3" fill="#dbeafe" fill-opacity="0.5" stroke="#94a3b8" stroke-width="0.8"/><polygon points="114.8,82.3 154.5,105.2 109.9,130.9 70.2,108.0" fill="#dbeafe" fill-opacity="0.5" stroke="#94a3b8" stroke-width="0.8"/><polygon points="199.1,79.4 238.8,102.3 194.1,128.1 154.5,105.2" fill="#dbeafe" fill-opacity="0.5" stroke="#94a3b8" stroke-width="0.8"/><polygon points="154.5,105.2 194.1,128.1 149.5,153.8 109.9,130.9" fill="#dbeafe" fill-opacity="0.5" stroke="#94a3b8" stroke-width="0.8"/><polygon points="238.8,102.3 278.4,125.2 233.8,151.0 194.1,128.1" fill="#dbeafe" fill-opacity="0.5" stroke="#94a3b8" stroke-width="0.8"/><polygon points="194.1,128.1 233.8,151.0 189.2,176.7 149.5,153.8" fill="#dbeafe" fill-opacity="0.5" stroke="#94a3b8" stroke-width="0.8"/><polygon points="278.4,125.2 318.1,148.1 273.5,173.9 233.8,151.0" fill="#dbeafe" fill-opacity="0.5" stroke="#94a3b8" stroke-width="0.8"/><polygon points="233.8,151.0 273.5,173.9 228.8,199.6 189.2,176.7" fill="#dbeafe" fill-opacity="0.5" stroke="#94a3b8" stroke-width="0.8"/><polygon points="318.1,148.1 357.7,171.0 313.1,196.7 273.5,173.9" fill="#dbeafe" fill-opacity="0.5" stroke="#94a3b8" stroke-width="0.8"/><polygon points="273.5,173.9 313.1,196.7 268.5,222.5 228.8,199.6" fill="#dbeafe" fill-opacity="0.5" stroke="#94a3b8" stroke-width="0.8"/><polygon points="357.7,171.0 397.4,193.9 352.8,219.6 313.1,196.7" fill="#dbeafe" fill-opacity="0.5" stroke="#94a3b8" stroke-width="0.8"/><polygon points="313.1,196.7 352.8,219.6 308.2,245.4 268.5,222.5" fill="#dbeafe" fill-opacity="0.5" stroke="#94a3b8" stroke-width="0.8"/><polygon points="397.4,193.9 437.0,216.8 392.4,242.5 352.8,219.6" fill="#dbeafe" fill-opacity="0.5" stroke="#94a3b8" stroke-width="0.8"/><polygon points="352.8,219.6 392.4,242.5 347.8,268.3 308.2,245.4" fill="#dbeafe" fill-opacity="0.5" stroke="#94a3b8" stroke-width="0.8"/><polygon points="437.0,216.8 476.7,239.7 432.1,265.4 392.4,242.5" fill="#dbeafe" fill-opacity="0.5" stroke="#94a3b8" stroke-width="0.8"/><polygon points="392.4,242.5 432.1,265.4 387.5,291.2 347.8,268.3" fill="#dbeafe" fill-opacity="0.5" stroke="#94a3b8" stroke-width="0.8"/><polygon points="476.7,239.7 516.4,262.6 471.7,288.3 432.1,265.4" fill="#dbeafe" fill-opacity="0.5" stroke="#94a3b8" stroke-width="0.8"/><polygon points="432.1,265.4 471.7,288.3 427.1,314.1 387.5,291.2" fill="#dbeafe" fill-opacity="0.5" stroke="#94a3b8" stroke-width="0.8"/><polygon points="516.4,262.6 556.0,285.5 511.4,311.2 471.7,288.3" fill="#dbeafe" fill-opacity="0.5" stroke="#94a3b8" stroke-width="0.8"/><polygon points="471.7,288.3 511.4,311.2 466.8,337.0 427.1,314.1" fill="#dbeafe" fill-opacity="0.5" stroke="#94a3b8" stroke-width="0.8"/><polygon points="556.0,285.5 595.7,308.4 551.1,334.1 511.4,311.2" fill="#dbeafe" fill-opacity="0.5" stroke="#94a3b8" stroke-width="0.8"/><polygon points="511.4,311.2 551.1,334.1 506.4,359.9 466.8,337.0" fill="#dbeafe" fill-opacity="0.5" stroke="#94a3b8" stroke-width="0.8"/><polygon points="595.7,308.4 635.3,331.3 590.7,357.0 551.1,334.1" fill="#dbeafe" fill-opacity="0.5" stroke="#94a3b8" stroke-width="0.8"/><polygon points="551.1,334.1 590.7,357.0 546.1,382.8 506.4,359.9" fill="#dbeafe" fill-opacity="0.5" stroke="#94a3b8" stroke-width="0.8"/><polygon points="635.3,331.3 675.0,354.2 630.4,379.9 590.7,357.0" fill="#dbeafe" fill-opacity="0.5" stroke="#94a3b8" stroke-width="0.8"/><polygon points="590.7,357.0 630.4,379.9 585.8,405.7 546.1,382.8" fill="#dbeafe" fill-opacity="0.5" stroke="#94a3b8" stroke-width="0.8"/><polygon points="675.0,354.2 714.6,377.1 670.0,402.8 630.4,379.9" fill="#dbeafe" fill-opacity="0.5" stroke="#94a3b8" stroke-width="0.8"/><polygon points="630.4,379.9 670.0,402.8 625.4,428.6 585.8,405.7" fill="#dbeafe" fill-opacity="0.5" stroke="#94a3b8" stroke-width="0.8"/><polygon points="714.6,377.1 754.3,400.0 709.7,425.7 670.0,402.8" fill="#dbeafe" fill-opacity="0.5" stroke="#94a3b8" stroke-width="0.8"/><polygon points="670.0,402.8 709.7,425.7 665.1,451.5 625.4,428.6" fill="#dbeafe" fill-opacity="0.5" stroke="#94a3b8" stroke-width="0.8"/><polygon points="754.3,400.0 794.0,422.9 749.3,448.6 709.7,425.7" fill="#dbeafe" fill-opacity="0.5" stroke="#94a3b8" stroke-width="0.8"/><polygon points="709.7,425.7 749.3,448.6 704.7,474.4 665.1,451.5" fill="#dbeafe" fill-opacity="0.5" stroke="#94a3b8" stroke-width="0.8"/><polygon points="794.0,422.9 833.6,445.7 789.0,471.5 749.3,448.6" fill="#dbeafe" fill-opacity="0.5" stroke="#94a3b8" stroke-width="0.8"/><polygon points="749.3,448.6 789.0,471.5 744.4,497.3 704.7,474.4" fill="#dbeafe" fill-opacity="0.5" stroke="#94a3b8" stroke-width="0.8"/><polygon points="833.6,445.7 873.3,468.6 828.7,494.4 789.0,471.5" fill="#dbeafe" fill-opacity="0.5" stroke="#94a3b8" stroke-width="0.8"/><polygon points="789.0,471.5 828.7,494.4 784.1,520.2 744.4,497.3" fill="#dbeafe" fill-opacity="0.5" stroke="#94a3b8" stroke-width="0.8"/><polygon points="873.3,468.6 912.9,491.5 868.3,517.3 828.7,494.4" fill="#dbeafe" fill-opacity="0.5" stroke="#94a3b8" stroke-width="0.8"/><polygon points="828.7,494.4 868.3,517.3 823.7,543.1 784.1,520.2" fill="#dbeafe" fill-opacity="0.5" stroke="#94a3b8" stroke-width="0.8"/><polygon points="912.9,491.5 952.6,514.4 908.0,540.2 868.3,517.3" fill="#dbeafe" fill-opacity="0.5" stroke="#94a3b8" stroke-width="0.8"/><polygon points="868.3,517.3 908.0,540.2 863.4,566.0 823.7,543.1" fill="#dbeafe" fill-opacity="0.5" stroke="#94a3b8" stroke-width="0.8"/><polyline points="75.2,30.7 114.8,28.7" fill="none" stroke="#9aa7b8" stroke-width="1"/><polyline points="114.8,28.7 154.5,29.2" fill="none" stroke="#9aa7b8" stroke-width="1"/><polyline points="154.5,29.2 194.1,32.1" fill="none" stroke="#9aa7b8" stroke-width="1"/><polyline points="194.1,32.1 233.8,37.6" fill="none" stroke="#9aa7b8" stroke-width="1"/><polyline points="233.8,37.6 273.5,45.5" fill="none" stroke="#9aa7b8" stroke-width="1"/><polyline points="273.5,45.5 313.1,56.0" fill="none" stroke="#9aa7b8" stroke-width="1"/><polyline points="313.1,56.0 352.8,68.9" fill="none" stroke="#9aa7b8" stroke-width="1"/><polyline points="352.8,68.9 392.4,84.3" fill="none" stroke="#9aa7b8" stroke-width="1"/><polyline points="392.4,84.3 432.1,102.2" fill="none" stroke="#9aa7b8" stroke-width="1"/><polyline points="432.1,102.2 471.7,122.6" fill="none" stroke="#9aa7b8" stroke-width="1"/><polyline points="471.7,122.6 511.4,145.5" fill="none" stroke="#9aa7b8" stroke-width="1"/><polyline points="511.4,145.5 551.1,170.9" fill="none" stroke="#9aa7b8" stroke-width="1"/><polyline points="551.1,170.9 590.7,198.8" fill="none" stroke="#9aa7b8" stroke-width="1"/><polyline points="590.7,198.8 630.4,229.2" fill="none" stroke="#9aa7b8" stroke-width="1"/><polyline points="630.4,229.2 670.0,262.1" fill="none" stroke="#9aa7b8" stroke-width="1"/><polyline points="670.0,262.1 709.7,297.4" fill="none" stroke="#9aa7b8" stroke-width="1"/><polyline points="709.7,297.4 749.3,335.3" fill="none" stroke="#9aa7b8" stroke-width="1"/><polyline points="749.3,335.3 789.0,375.6" fill="none" stroke="#9aa7b8" stroke-width="1"/><polyline points="789.0,375.6 828.7,418.4" fill="none" stroke="#9aa7b8" stroke-width="1"/><polyline points="828.7,418.4 868.3,463.8" fill="none" stroke="#9aa7b8" stroke-width="1"/><polyline points="868.3,463.8 908.0,511.6" fill="none" stroke="#9aa7b8" stroke-width="1"/><polyline points="75.2,30.7 119.8,33.6" fill="none" stroke="#9aa7b8" stroke-width="1"/><polyline points="75.2,30.7 30.5,85.1" fill="none" stroke="#9aa7b8" stroke-width="1"/><polyline points="75.2,30.7 75.2,59.4" fill="none" stroke="#9aa7b8" stroke-width="1"/><polyline points="908.0,511.6 952.6,514.4" fill="none" stroke="#9aa7b8" stroke-width="1"/><polyline points="908.0,511.6 863.4,566.0" fill="none" stroke="#9aa7b8" stroke-width="1"/><polyline points="908.0,511.6 908.0,540.2" fill="none" stroke="#9aa7b8" stroke-width="1"/><polyline points="114.8,28.7 194.1,128.1" fill="none" stroke="#9aa7b8" stroke-width="1"/><polyline points="154.5,29.2 233.8,151.0" fill="none" stroke="#9aa7b8" stroke-width="1"/><polyline points="194.1,32.1 114.8,82.3" fill="none" stroke="#9aa7b8" stroke-width="1"/><polyline points="194.1,32.1 273.5,173.9" fill="none" stroke="#9aa7b8" stroke-width="1"/><polyline points="233.8,37.6 154.5,105.2" fill="none" stroke="#9aa7b8" stroke-width="1"/><polyline points="233.8,37.6 313.1,196.7" fill="none" stroke="#9aa7b8" stroke-width="1"/><polyline points="273.5,45.5 194.1,128.1" fill="none" stroke="#9aa7b8" stroke-width="1"/><polyline points="273.5,45.5 352.8,219.6" fill="none" stroke="#9aa7b8" stroke-width="1"/><polyline points="313.1,56.0 233.8,151.0" fill="none" stroke="#9aa7b8" stroke-width="1"/><polyline points="313.1,56.0 392.4,242.5" fill="none" stroke="#9aa7b8" stroke-width="1"/><polyline points="352.8,68.9 273.5,173.9" fill="none" stroke="#9aa7b8" stroke-width="1"/><polyline points="352.8,68.9 432.1,265.4" fill="none" stroke="#9aa7b8" stroke-width="1"/><polyline points="392.4,84.3 313.1,196.7" fill="none" stroke="#9aa7b8" stroke-width="1"/><polyline points="392.4,84.3 471.7,288.3" fill="none" stroke="#9aa7b8" stroke-width="1"/><polyline points="432.1,102.2 352.8,219.6" fill="none" stroke="#9aa7b8" stroke-width="1"/><polyline points="432.1,102.2 511.4,311.2" fill="none" stroke="#9aa7b8" stroke-width="1"/><polyline points="471.7,122.6 392.4,242.5" fill="none" stroke="#9aa7b8" stroke-width="1"/><polyline points="471.7,122.6 551.1,334.1" fill="none" stroke="#9aa7b8" stroke-width="1"/><polyline points="511.4,145.5 432.1,265.4" fill="none" stroke="#9aa7b8" stroke-width="1"/><polyline points="511.4,145.5 590.7,357.0" fill="none" stroke="#9aa7b8" stroke-width="1"/><polyline points="551.1,170.9 471.7,288.3" fill="none" stroke="#9aa7b8" stroke-width="1"/><polyline points="551.1,170.9 630.4,379.9" fill="none" stroke="#9aa7b8" stroke-width="1"/><polyline points="590.7,198.8 511.4,311.2" fill="none" stroke="#9aa7b8" stroke-width="1"/><polyline points="590.7,198.8 670.0,402.8" fill="none" stroke="#9aa7b8" stroke-width="1"/><polyline points="630.4,229.2 551.1,334.1" fill="none" stroke="#9aa7b8" stroke-width="1"/><polyline points="630.4,229.2 709.7,425.7" fill="none" stroke="#9aa7b8" stroke-width="1"/><polyline points="670.0,262.1 590.7,357.0" fill="none" stroke="#9aa7b8" stroke-width="1"/><polyline points="670.0,262.1 749.3,448.6" fill="none" stroke="#9aa7b8" stroke-width="1"/><polyline points="709.7,297.4 630.4,379.9" fill="none" stroke="#9aa7b8" stroke-width="1"/><polyline points="709.7,297.4 789.0,471.5" fill="none" stroke="#9aa7b8" stroke-width="1"/><polyline points="749.3,335.3 670.0,402.8" fill="none" stroke="#9aa7b8" stroke-width="1"/><polyline points="749.3,335.3 828.7,494.4" fill="none" stroke="#9aa7b8" stroke-width="1"/><polyline points="789.0,375.6 709.7,425.7" fill="none" stroke="#9aa7b8" stroke-width="1"/><polyline points="789.0,375.6 868.3,517.3" fill="none" stroke="#9aa7b8" stroke-width="1"/><polyline points="828.7,418.4 749.3,448.6" fill="none" stroke="#9aa7b8" stroke-width="1"/><polyline points="868.3,463.8 789.0,471.5" fill="none" stroke="#9aa7b8" stroke-width="1"/><polyline points="63.2,26.0 104.8,36.8" fill="none" stroke="#2563eb" stroke-width="2"/><polyline points="104.8,36.8 148.8,57.8" fill="none" stroke="#2563eb" stroke-width="2"/><polyline points="148.8,57.8 190.9,76.3" fill="none" stroke="#2563eb" stroke-width="2"/><polyline points="190.9,76.3 231.0,91.4" fill="none" stroke="#2563eb" stroke-width="2"/><polyline points="231.0,91.4 269.8,103.9" fill="none" stroke="#2563eb" stroke-width="2"/><polyline points="269.8,103.9 308.2,116.9" fill="none" stroke="#2563eb" stroke-width="2"/><polyline points="308.2,116.9 346.7,132.3" fill="none" stroke="#2563eb" stroke-width="2"/><polyline points="346.7,132.3 385.3,149.8" fill="none" stroke="#2563eb" stroke-width="2"/><polyline points="385.3,149.8 424.0,169.1" fill="none" stroke="#2563eb" stroke-width="2"/><polyline points="424.0,169.1 462.7,190.0" fill="none" stroke="#2563eb" stroke-width="2"/><polyline points="462.7,190.0 501.6,212.6" fill="none" stroke="#2563eb" stroke-width="2"/><polyline points="501.6,212.6 540.7,236.9" fill="none" stroke="#2563eb" stroke-width="2"/><polyline points="540.7,236.9 580.0,262.9" fill="none" stroke="#2563eb" stroke-width="2"/><polyline points="580.0,262.9 619.7,290.8" fill="none" stroke="#2563eb" stroke-width="2"/><polyline points="619.7,290.8 659.6,321.0" fill="none" stroke="#2563eb" stroke-width="2"/><polyline points="659.6,321.0 699.8,353.6" fill="none" stroke="#2563eb" stroke-width="2"/><polyline points="699.8,353.6 740.8,387.4" fill="none" stroke="#2563eb" stroke-width="2"/><polyline points="740.8,387.4 783.3,420.4" fill="none" stroke="#2563eb" stroke-width="2"/><polyline points="783.3,420.4 828.2,452.4" fill="none" stroke="#2563eb" stroke-width="2"/><polyline points="828.2,452.4 875.4,484.2" fill="none" stroke="#2563eb" stroke-width="2"/><polyline points="875.4,484.2 920.6,523.7" fill="none" stroke="#2563eb" stroke-width="2"/><polyline points="63.2,26.0 119.8,33.6" fill="none" stroke="#2563eb" stroke-width="2"/><polyline points="63.2,26.0 26.0,82.5" fill="none" stroke="#2563eb" stroke-width="2"/><polyline points="63.2,26.0 72.2,59.9" fill="none" stroke="#2563eb" stroke-width="2"/><polyline points="920.6,523.7 954.0,513.6" fill="none" stroke="#2563eb" stroke-width="2"/><polyline points="920.6,523.7 866.5,569.4" fill="none" stroke="#2563eb" stroke-width="2"/><polyline points="920.6,523.7 911.6,547.2" fill="none" stroke="#2563eb" stroke-width="2"/><polyline points="104.8,36.8 186.8,174.7" fill="none" stroke="#2563eb" stroke-width="2"/><polyline points="148.8,57.8 225.4,201.3" fill="none" stroke="#2563eb" stroke-width="2"/><polyline points="190.9,76.3 110.4,106.9" fill="none" stroke="#2563eb" stroke-width="2"/><polyline points="190.9,76.3 264.2,233.5" fill="none" stroke="#2563eb" stroke-width="2"/><polyline points="231.0,91.4 148.6,157.5" fill="none" stroke="#2563eb" stroke-width="2"/><polyline points="231.0,91.4 303.2,262.6" fill="none" stroke="#2563eb" stroke-width="2"/><polyline points="269.8,103.9 186.8,174.7" fill="none" stroke="#2563eb" stroke-width="2"/><polyline points="269.8,103.9 342.4,289.2" fill="none" stroke="#2563eb" stroke-width="2"/><polyline points="308.2,116.9 225.4,201.3" fill="none" stroke="#2563eb" stroke-width="2"/><polyline points="308.2,116.9 381.8,314.1" fill="none" stroke="#2563eb" stroke-width="2"/><polyline points="346.7,132.3 264.2,233.5" fill="none" stroke="#2563eb" stroke-width="2"/><polyline points="346.7,132.3 421.4,338.6" fill="none" stroke="#2563eb" stroke-width="2"/><polyline points="385.3,149.8 303.2,262.6" fill="none" stroke="#2563eb" stroke-width="2"/><polyline points="385.3,149.8 461.2,362.6" fill="none" stroke="#2563eb" stroke-width="2"/><polyline points="424.0,169.1 342.4,289.2" fill="none" stroke="#2563eb" stroke-width="2"/><polyline points="424.0,169.1 501.2,385.8" fill="none" stroke="#2563eb" stroke-width="2"/><polyline points="462.7,190.0 381.8,314.1" fill="none" stroke="#2563eb" stroke-width="2"/><polyline points="462.7,190.0 541.4,408.2" fill="none" stroke="#2563eb" stroke-width="2"/><polyline points="501.6,212.6 421.4,338.6" fill="none" stroke="#2563eb" stroke-width="2"/><polyline points="501.6,212.6 581.7,430.2" fill="none" stroke="#2563eb" stroke-width="2"/><polyline points="540.7,236.9 461.2,362.6" fill="none" stroke="#2563eb" stroke-width="2"/><polyline points="540.7,236.9 622.3,451.7" fill="none" stroke="#2563eb" stroke-width="2"/><polyline points="580.0,262.9 501.2,385.8" fill="none" stroke="#2563eb" stroke-width="2"/><polyline points="580.0,262.9 663.0,471.6" fill="none" stroke="#2563eb" stroke-width="2"/><polyline points="619.7,290.8 541.4,408.2" fill="none" stroke="#2563eb" stroke-width="2"/><polyline points="619.7,290.8 704.0,488.9" fill="none" stroke="#2563eb" stroke-width="2"/><polyline points="659.6,321.0 581.7,430.2" fill="none" stroke="#2563eb" stroke-width="2"/><polyline points="659.6,321.0 745.1,503.1" fill="none" stroke="#2563eb" stroke-width="2"/><polyline points="699.8,353.6 622.3,451.7" fill="none" stroke="#2563eb" stroke-width="2"/><polyline points="699.8,353.6 786.4,522.9" fill="none" stroke="#2563eb" stroke-width="2"/><polyline points="740.8,387.4 663.0,471.6" fill="none" stroke="#2563eb" stroke-width="2"/><polyline points="740.8,387.4 827.7,551.7" fill="none" stroke="#2563eb" stroke-width="2"/><polyline points="783.3,420.4 704.0,488.9" fill="none" stroke="#2563eb" stroke-width="2"/><polyline points="783.3,420.4 869.5,547.5" fill="none" stroke="#2563eb" stroke-width="2"/><polyline points="828.2,452.4 745.1,503.1" fill="none" stroke="#2563eb" stroke-width="2"/><polyline points="875.4,484.2 786.4,522.9" fill="none" stroke="#2563eb" stroke-width="2"/><rect x="115.8" y="29.6" width="8" height="8" fill="#0f766e" stroke="#fff" stroke-width="0.8"/><rect x="26.5" y="81.1" width="8" height="8" fill="#0f766e" stroke="#fff" stroke-width="0.8"/><rect x="948.6" y="510.4" width="8" height="8" fill="#0f766e" stroke="#fff" stroke-width="0.8"/><rect x="859.4" y="562.0" width="8" height="8" fill="#0f766e" stroke="#fff" stroke-width="0.8"/></svg>