<svg xmlns="http://www.w3.org/2000/svg" viewBox="0 0 820 794" width="820" height="794"><rect width="820" height="794" fill="#ffffff"/><polyline points="331.9,379.3 331.9,308.6" fill="none" stroke="#9aa7b8" stroke-width="1"/><polyline points="230.0,438.1 230.0,367.5" fill="none" stroke="#9aa7b8" stroke-width="1"/><polyline points="128.0,497.0 128.0,426.4" fill="none" stroke="#9aa7b8" stroke-width="1"/><polyline points="26.0,555.9 26.0,485.2" fill="none" stroke="#9aa7b8" stroke-width="1"/><polyline points="454.3,449.9 454.3,379.3" fill="none" stroke="#9aa7b8" stroke-width="1"/><polyline points="352.3,508.8 352.3,438.1" fill="none" stroke="#9aa7b8" stroke-width="1"/><polyline points="250.3,567.7 250.3,497.0" fill="none" stroke="#9aa7b8" stroke-width="1"/><polyline points="148.4,626.5 148.4,555.9" fill="none" stroke="#9aa7b8" stroke-width="1"/><polyline points="576.7,520.6 576.7,449.9" fill="none" stroke="#9aa7b8" stroke-width="1"/><polyline points="474.7,579.4 474.7,508.8" fill="none" stroke="#9aa7b8" stroke-width="1"/><polyline points="372.7,638.3 372.7,567.7" fill="none" stroke="#9aa7b8" stroke-width="1"/><polyline points="270.7,697.2 270.7,626.5" fill="none" stroke="#9aa7b8" stroke-width="1"/><polyline points="699.0,591.2 699.0,520.6" fill="none" stroke="#9aa7b8" stroke-width="1"/><polyline points="597.1,650.1 597.1,579.4" fill="none" stroke="#9aa7b8" stroke-width="1"/><polyline points="495.1,709.0 495.1,638.3" fill="none" stroke="#9aa7b8" stroke-width="1"/><polyline points="393.1,767.8 393.1,697.2" fill="none" stroke="#9aa7b8" stroke-width="1"/><polyline points="331.9,308.6 331.9,238.0" fill="none" stroke="#9aa7b8" stroke-width="1"/><polyline points="230.0,367.5 230.0,296.8" fill="none" stroke="#9aa7b8" stroke-width="1"/><polyline points="128.0,426.4 128.0,355.7" fill="none" stroke="#9aa7b8" stroke-width="1"/><polyline points="26.0,485.2 26.0,414.6" fill="none" stroke="#9aa7b8" stroke-width="1"/><polyline points="454.3,379.3 454.3,308.6" fill="none" stroke="#9aa7b8" stroke-width="1"/><polyline points="352.3,438.1 352.3,367.5" fill="none" stroke="#9aa7b8" stroke-width="1"/><polyline points="250.3,497.0 250.3,426.4" fill="none" stroke="#9aa7b8" stroke-width="1"/><polyline points="148.4,555.9 148.4,485.2" fill="none" stroke="#9aa7b8" stroke-width="1"/><polyline points="576.7,449.9 576.7,379.3" fill="none" stroke="#9aa7b8" stroke-width="1"/><polyline points="474.7,508.8 474.7,438.1" fill="none" stroke="#9aa7b8" stroke-width="1"/><polyline points="372.7,567.7 372.7,497.0" fill="none" stroke="#9aa7b8" stroke-width="1"/><polyline points="270.7,626.5 270.7,555.9" fill="none" stroke="#9aa7b8" stroke-width="1"/><polyline points="699.0,520.6 699.0,449.9" fill="none" stroke="#9aa7b8" stroke-width="1"/><polyline points="597.1,579.4 597.1,508.8" fill="none" stroke="#9aa7b8" stroke-width="1"/><polyline points="495.1,638.3 495.1,567.7" fill="none" stroke="#9aa7b8" stroke-width="1"/><polyline points="393.1,697.2 393.1,626.5" fill="none" stroke="#9aa7b8" stroke-width="1"/><polyline points="331.9,238.0 331.9,167.3" fill="none" stroke="#9aa7b8" stroke-width="1"/><polyline points="230.0,296.8 230.0,226.2" fill="none" stroke="#9aa7b8" stroke-width="1"/><polyline points="128.0,355.7 128.0,285.1" fill="none" stroke="#9aa7b8" stroke-width="1"/><polyline points="26.0,414.6 26.0,343.9" fill="none" stroke="#9aa7b8" stroke-width="1"/><polyline points="454.3,308.6 454.3,238.0" fill="none" stroke="#9aa7b8" stroke-width="1"/><polyline points="352.3,367.5 352.3,296.8" fill="none" stroke="#9aa7b8" stroke-width="1"/><polyline points="250.3,426.4 250.3,355.7" fill="none" stroke="#9aa7b8" stroke-width="1"/><polyline points="148.4,485.2 148.4,414.6" fill="none" stroke="#9aa7b8" stroke-width="1"/><polyline points="576.7,379.3 576.7,308.6" fill="none" stroke="#9aa7b8" stroke-width="1"/><polyline points="474.7,438.1 474.7,367.5" fill="none" stroke="#9aa7b8" stroke-width="1"/><polyline points="372.7,497.0 372.7,426.4" fill="none" stroke="#9aa7b8" stroke-width="1"/><polyline points="270.7,555.9 270.7,485.2" fill="none" stroke="#9aa7b8" stroke-width="1"/><polyline points="699.0,449.9 699.0,379.3" fill="none" stroke="#9aa7b8" stroke-width="1"/><polyline points="597.1,508.8 597.1,438.1" fill="none" stroke="#9aa7b8" stroke-width="1"/><polyline points="495.1,567.7 495.1,497.0" fill="none" stroke="#9aa7b8" stroke-width="1"/><polyline points="393.1,626.5 393.1,555.9" fill="none" stroke="#9aa7b8" stroke-width="1"/><polyline points="331.9,167.3 331.9,96.7" fill="none" stroke="#9aa7b8" stroke-width="1"/><polyline points="230.0,226.2 230.0,155.5" fill="none" stroke="#9aa7b8" stroke-width="1"/><polyline points="128.0,285.1 128.0,214.4" fill="none" stroke="#9aa7b8" stroke-width="1"/><polyline points="26.0,343.9 26.0,273.3" fill="none" stroke="#9aa7b8" stroke-width="1"/><polyline points="454.3,238.0 454.3,167.3" fill="none" stroke="#9aa7b8" stroke-width="1"/><polyline points="352.3,296.8 352.3,226.2" fill="none" stroke="#9aa7b8" stroke-width="1"/><polyline points="250.3,355.7 250.3,285.1" fill="none" stroke="#9aa7b8" stroke-width="1"/><polyline points="148.4,414.6 148.4,343.9" fill="none" stroke="#9aa7b8" stroke-width="1"/><polyline points="576.7,308.6 576.7,238.0" fill="none" stroke="#9aa7b8" stroke-width="1"/><polyline points="474.7,367.5 474.7,296.8" fill="none" stroke="#9aa7b8" stroke-width="1"/><polyline points="372.7,426.4 372.7,355.7" fill="none" stroke="#9aa7b8" stroke-width="1"/><polyline points="270.7,485.2 270.7,414.6" fill="none" stroke="#9aa7b8" stroke-width="1"/><polyline points="699.0,379.3 699.0,308.6" fill="none" stroke="#9aa7b8" stroke-width="1"/><polyline points="597.1,438.1 597.1,367.5" fill="none" stroke="#9aa7b8" stroke-width="1"/><polyline points="495.1,497.0 495.1,426.4" fill="none" stroke="#9aa7b8" stroke-width="1"/><polyline points="393.1,555.9 393.1,485.2" fill="none" stroke="#9aa7b8" stroke-width="1"/><polyline points="331.9,96.7 331.9,26.0" fill="none" stroke="#9aa7b8" stroke-width="1"/><polyline points="230.0,155.5 230.0,84.9" fill="none" stroke="#9aa7b8" stroke-width="1"/><polyline points="128.0,214.4 128.0,143.8" fill="none" stroke="#9aa7b8" stroke-width="1"/><polyline points="26.0,273.3 26.0,202.6" fill="none" stroke="#9aa7b8" stroke-width="1"/><polyline points="454.3,167.3 454.3,96.7" fill="none" stroke="#9aa7b8" stroke-width="1"/><polyline points="352.3,226.2 352.3,155.5" fill="none" stroke="#9aa7b8" stroke-width="1"/><polyline points="250.3,285.1 250.3,214.4" fill="none" stroke="#9aa7b8" stroke-width="1"/><polyline points="148.4,343.9 148.4,273.3" fill="none" stroke="#9aa7b8" stroke-width="1"/><polyline points="576.7,238.0 576.7,167.3" fill="none" stroke="#9aa7b8" stroke-width="1"/><polyline points="474.7,296.8 474.7,226.2" fill="none" stroke="#9aa7b8" stroke-width="1"/><polyline points="372.7,355.7 372.7,285.1" fill="none" stroke="#9aa7b8" stroke-width="1"/><polyline points="270.7,414.6 270.7,343.9" fill="none" stroke="#9aa7b8" stroke-width="1"/><polyline points="699.0,308.6 699.0,238.0" fill="none" stroke="#9aa7b8" stroke-width="1"/><polyline points="597.1,367.5 597.1,296.8" fill="none" stroke="#9aa7b8" stroke-width="1"/><polyline points="495.1,426.4 495.1,355.7" fill="none" stroke="#9aa7b8" stroke-width="1"/><polyline points="393.1,485.2 393.1,414.6" fill="none" stroke="#9aa7b8" stroke-width="1"/><polyline points="331.9,308.6 454.3,379.3" fill="none" stroke="#9aa7b8" stroke-width="1"/><polyline points="454.3,379.3 576.7,449.9" fill="none" stroke="#9aa7b8" stroke-width="1"/><polyline points="576.7,449.9 699.0,520.6" fill="none" stroke="#9aa7b8" stroke-width="1"/><polyline points="230.0,367.5 352.3,438.1" fill="none" stroke="#9aa7b8" stroke-width="1"/><polyline points="352.3,438.1 474.7,508.8" fill="none" stroke="#9aa7b8" stroke-width="1"/><polyline points="474.7,508.8 597.1,579.4" fill="none" stroke="#9aa7b8" stroke-width="1"/><polyline points="128.0,426.4 250.3,497.0" fill="none" stroke="#9aa7b8" stroke-width="1"/><polyline points="250.3,497.0 372.7,567.7" fill="none" stroke="#9aa7b8" stroke-width="1"/><polyline points="372.7,567.7 495.1,638.3" fill="none" stroke="#9aa7b8" stroke-width="1"/><polyline points="26.0,485.2 148.4,555.9" fill="none" stroke="#9aa7b8" stroke-width="1"/><polyline points="148.4,555.9 270.7,626.5" fill="none" stroke="#9aa7b8" stroke-width="1"/><polyline points="270.7,626.5 393.1,697.2" fill="none" stroke="#9aa7b8" stroke-width="1"/><polyline points="331.9,308.6 230.0,367.5" fill="none" stroke="#9aa7b8" stroke-width="1"/><polyline points="230.0,367.5 128.0,426.4" fill="none" stroke="#9aa7b8" stroke-width="1"/><polyline points="128.0,426.4 26.0,485.2" fill="none" stroke="#9aa7b8" stroke-width="1"/><polyline points="454.3,379.3 352.3,438.1" fill="none" stroke="#9aa7b8" stroke-width="1"/><polyline points="352.3,438.1 250.3,497.0" fill="none" stroke="#9aa7b8" stroke-width="1"/><polyline points="250.3,497.0 148.4,555.9" fill="none" stroke="#9aa7b8" stroke-width="1"/><polyline points="576.7,449.9 474.7,508.8" fill="none" stroke="#9aa7b8" stroke-width="1"/><polyline points="474.7,508.8 372.7,567.7" fill="none" stroke="#9aa7b8" stroke-width="1"/><polyline points="372.7,567.7 270.7,626.5" fill="none" stroke="#9aa7b8" stroke-width="1"/><polyline points="699.0,520.6 597.1,579.4" fill="none" stroke="#9aa7b8" stroke-width="1"/><polyline points="597.1,579.4 495.1,638.3" fill="none" stroke="#9aa7b8" stroke-width="1"/><polyline points="495.1,638.3 393.1,697.2" fill="none" stroke="#9aa7b8" stroke-width="1"/><polyline points="331.9,238.0 454.3,308.6" fill="none" stroke="#9aa7b8" stroke-width="1"/><polyline points="454.3,308.6 576.7,379.3" fill="none" stroke="#9aa7b8" stroke-width="1"/><polyline points="576.7,379.3 699.0,449.9" fill="none" stroke="#9aa7b8" stroke-width="1"/><polyline points="230.0,296.8 352.3,367.5" fill="none" stroke="#9aa7b8" stroke-width="1"/><polyline points="352.3,367.5 474.7,438.1" fill="none" stroke="#9aa7b8" stroke-width="1"/><polyline points="474.7,438.1 597.1,508.8" fill="none" stroke="#9aa7b8" stroke-width="1"/><polyline points="128.0,355.7 250.3,426.4" fill="none" stroke="#9aa7b8" stroke-width="1"/><polyline points="250.3,426.4 372.7,497.0" fill="none" stroke="#9aa7b8" stroke-width="1"/><polyline points="372.7,497.0 495.1,567.7" fill="none" stroke="#9aa7b8" stroke-width="1"/><polyline points="26.0,414.6 148.4,485.2" fill="none" stroke="#9aa7b8" stroke-width="1"/><polyline points="148.4,485.2 270.7,555.9" fill="none" stroke="#9aa7b8" stroke-width="1"/><polyline points="270.7,555.9 393.1,626.5" fill="none" stroke="#9aa7b8" stroke-width="1"/><polyline points="331.9,238.0 230.0,296.8" fill="none" stroke="#9aa7b8" stroke-width="1"/><polyline points="230.0,296.8 128.0,355.7" fill="none" stroke="#9aa7b8" stroke-width="1"/><polyline points="128.0,355.7 26.0,414.6" fill="none" stroke="#9aa7b8" stroke-width="1"/><polyline points="454.3,308.6 352.3,367.5" fill="none" stroke="#9aa7b8" stroke-width="1"/><polyline points="352.3,367.5 250.3,426.4" fill="none" stroke="#9aa7b8" stroke-width="1"/><polyline points="250.3,426.4 148.4,485.2" fill="none" stroke="#9aa7b8" stroke-width="1"/><polyline points="576.7,379.3 474.7,438.1" fill="none" stroke="#9aa7b8" stroke-width="1"/><polyline points="474.7,438.1 372.7,497.0" fill="none" stroke="#9aa7b8" stroke-width="1"/><polyline points="372.7,497.0 270.7,555.9" fill="none" stroke="#9aa7b8" stroke-width="1"/><polyline points="699.0,449.9 597.1,508.8" fill="none" stroke="#9aa7b8" stroke-width="1"/><polyline points="597.1,508.8 495.1,567.7" fill="none" stroke="#9aa7b8" stroke-width="1"/><polyline points="495.1,567.7 393.1,626.5" fill="none" stroke="#9aa7b8" stroke-width="1"/><polyline points="331.9,167.3 454.3,238.0" fill="none" stroke="#9aa7b8" stroke-width="1"/><polyline points="454.3,238.0 576.7,308.6" fill="none" stroke="#9aa7b8" stroke-width="1"/><polyline points="576.7,308.6 699.0,379.3" fill="none" stroke="#9aa7b8" stroke-width="1"/><polyline points="230.0,226.2 352.3,296.8" fill="none" stroke="#9aa7b8" stroke-width="1"/><polyline points="352.3,296.8 474.7,367.5" fill="none" stroke="#9aa7b8" stroke-width="1"/><polyline points="474.7,367.5 597.1,438.1" fill="none" stroke="#9aa7b8" stroke-width="1"/><polyline points="128.0,285.1 250.3,355.7" fill="none" stroke="#9aa7b8" stroke-width="1"/><polyline points="250.3,355.7 372.7,426.4" fill="none" stroke="#9aa7b8" stroke-width="1"/><polyline points="372.7,426.4 495.1,497.0" fill="none" stroke="#9aa7b8" stroke-width="1"/><polyline points="26.0,343.9 148.4,414.6" fill="none" stroke="#9aa7b8" stroke-width="1"/><polyline points="148.4,414.6 270.7,485.2" fill="none" stroke="#9aa7b8" stroke-width="1"/><polyline points="270.7,485.2 393.1,555.9" fill="none" stroke="#9aa7b8" stroke-width="1"/><polyline points="331.9,167.3 230.0,226.2" fill="none" stroke="#9aa7b8" stroke-width="1"/><polyline points="230.0,226.2 128.0,285.1" fill="none" stroke="#9aa7b8" stroke-width="1"/><polyline points="128.0,285.1 26.0,343.9" fill="none" stroke="#9aa7b8" stroke-width="1"/><polyline points="454.3,238.0 352.3,296.8" fill="none" stroke="#9aa7b8" stroke-width="1"/><polyline points="352.3,296.8 250.3,355.7" fill="none" stroke="#9aa7b8" stroke-width="1"/><polyline points="250.3,355.7 148.4,414.6" fill="none" stroke="#9aa7b8" stroke-width="1"/><polyline points="576.7,308.6 474.7,367.5" fill="none" stroke="#9aa7b8" stroke-width="1"/><polyline points="474.7,367.5 372.7,426.4" fill="none" stroke="#9aa7b8" stroke-width="1"/><polyline points="372.7,426.4 270.7,485.2" fill="none" stroke="#9aa7b8" stroke-width="1"/><polyline points="699.0,379.3 597.1,438.1" fill="none" stroke="#9aa7b8" stroke-width="1"/><polyline points="597.1,438.1 495.1,497.0" fill="none" stroke="#9aa7b8" stroke-width="1"/><polyline points="495.1,497.0 393.1,555.9" fill="none" stroke="#9aa7b8" stroke-width="1"/><polyline points="331.9,96.7 454.3,167.3" fill="none" stroke="#9aa7b8" stroke-width="1"/><polyline points="454.3,167.3 576.7,238.0" fill="none" stroke="#9aa7b8" stroke-width="1"/><polyline points="576.7,238.0 699.0,308.6" fill="none" stroke="#9aa7b8" stroke-width="1"/><polyline points="230.0,155.5 352.3,226.2" fill="none" stroke="#9aa7b8" stroke-width="1"/><polyline points="352.3,226.2 474.7,296.8" fill="none" stroke="#9aa7b8" stroke-width="1"/><polyline points="474.7,296.8 597.1,367.5" fill="none" stroke="#9aa7b8" stroke-width="1"/><polyline points="128.0,214.4 250.3,285.1" fill="none" stroke="#9aa7b8" stroke-width="1"/><polyline points="250.3,285.1 372.7,355.7" fill="none" stroke="#9aa7b8" stroke-width="1"/><polyline points="372.7,355.7 495.1,426.4" fill="none" stroke="#9aa7b8" stroke-width="1"/><polyline points="26.0,273.3 148.4,343.9" fill="none" stroke="#9aa7b8" stroke-width="1"/><polyline points="148.4,343.9 270.7,414.6" fill="none" stroke="#9aa7b8" stroke-width="1"/><polyline points="270.7,414.6 393.1,485.2" fill="none" stroke="#9aa7b8" stroke-width="1"/><polyline points="331.9,96.7 230.0,155.5" fill="none" stroke="#9aa7b8" stroke-width="1"/><polyline points="230.0,155.5 128.0,214.4" fill="none" stroke="#9aa7b8" stroke-width="1"/><polyline points="128.0,214.4 26.0,273.3" fill="none" stroke="#9aa7b8" stroke-width="1"/><polyline points="454.3,167.3 352.3,226.2" fill="none" stroke="#9aa7b8" stroke-width="1"/><polyline points="352.3,226.2 250.3,285.1" fill="none" stroke="#9aa7b8" stroke-width="1"/><polyline points="250.3,285.1 148.4,343.9" fill="none" stroke="#9aa7b8" stroke-width="1"/><polyline points="576.7,238.0 474.7,296.8" fill="none" stroke="#9aa7b8" stroke-width="1"/><polyline points="474.7,296.8 372.7,355.7" fill="none" stroke="#9aa7b8" stroke-width="1"/><polyline points="372.7,355.7 270.7,414.6" fill="none" stroke="#9aa7b8" stroke-width="1"/><polyline points="699.0,308.6 597.1,367.5" fill="none" stroke="#9aa7b8" stroke-width="1"/><polyline points="597.1,367.5 495.1,426.4" fill="none" stroke="#9aa7b8" stroke-width="1"/><polyline points="495.1,426.4 393.1,485.2" fill="none" stroke="#9aa7b8" stroke-width="1"/><polyline points="331.9,26.0 454.3,96.7" fill="none" stroke="#9aa7b8" stroke-width="1"/><polyline points="454.3,96.7 576.7,167.3" fill="none" stroke="#9aa7b8" stroke-width="1"/><polyline points="576.7,167.3 699.0,238.0" fill="none" stroke="#9aa7b8" stroke-width="1"/><polyline points="230.0,84.9 352.3,155.5" fill="none" stroke="#9aa7b8" stroke-width="1"/><polyline points="352.3,155.5 474.7,226.2" fill="none" stroke="#9aa7b8" stroke-width="1"/><polyline points="474.7,226.2 597.1,296.8" fill="none" stroke="#9aa7b8" stroke-width="1"/><polyline points="128.0,143.8 250.3,214.4" fill="none" stroke="#9aa7b8" stroke-width="1"/><polyline points="250.3,214.4 372.7,285.1" fill="none" stroke="#9aa7b8" stroke-width="1"/><polyline points="372.7,285.1 495.1,355.7" fill="none" stroke="#9aa7b8" stroke-width="1"/><polyline points="26.0,202.6 148.4,273.3" fill="none" stroke="#9aa7b8" stroke-width="1"/><polyline points="148.4,273.3 270.7,343.9" fill="none" stroke="#9aa7b8" stroke-width="1"/><polyline points="270.7,343.9 393.1,414.6" fill="none" stroke="#9aa7b8" stroke-width="1"/><polyline points="331.9,26.0 230.0,84.9" fill="none" stroke="#9aa7b8" stroke-width="1"/><polyline points="230.0,84.9 128.0,143.8" fill="none" stroke="#9aa7b8" stroke-width="1"/><polyline points="128.0,143.8 26.0,202.6" fill="none" stroke="#9aa7b8" stroke-width="1"/><polyline points="454.3,96.7 352.3,155.5" fill="none" stroke="#9aa7b8" stroke-width="1"/><polyline points="352.3,155.5 250.3,214.4" fill="none" stroke="#9aa7b8" stroke-width="1"/><polyline points="250.3,214.4 148.4,273.3" fill="none" stroke="#9aa7b8" stroke-width="1"/><polyline points="576.7,167.3 474.7,226.2" fill="none" stroke="#9aa7b8" stroke-width="1"/><polyline points="474.7,226.2 372.7,285.1" fill="none" stroke="#9aa7b8" stroke-width="1"/><polyline points="372.7,285.1 270.7,343.9" fill="none" stroke="#9aa7b8" stroke-width="1"/><polyline points="699.0,238.0 597.1,296.8" fill="none" stroke="#9aa7b8" stroke-width="1"/><polyline points="597.1,296.8 495.1,355.7" fill="none" stroke="#9aa7b8" stroke-width="1"/><polyline points="495.1,355.7 393.1,414.6" fill="none" stroke="#9aa7b8" stroke-width="1"/><polyline points="331.9,379.3 349.4,319.6" fill="none" stroke="#2563eb" stroke-width="2"/><polyline points="230.0,438.1 247.5,378.6" fill="none" stroke="#2563eb" stroke-width="2"/><polyline points="128.0,497.0 145.5,437.4" fill="none" stroke="#2563eb" stroke-width="2"/><polyline points="26.0,555.9 43.5,496.4" fill="none" stroke="#2563eb" stroke-width="2"/><polyline points="454.3,449.9 471.8,390.9" fill="none" stroke="#2563eb" stroke-width="2"/><polyline points="352.3,508.8 369.8,449.8" fill="none" stroke="#2563eb" stroke-width="2"/><polyline points="250.3,567.7 267.8,508.7" fill="none" stroke="#2563eb" stroke-width="2"/><polyline points="148.4,626.5 165.9,567.6" fill="none" stroke="#2563eb" stroke-width="2"/><polyline points="576.7,520.6 594.2,461.4" fill="none" stroke="#2563eb" stroke-width="2"/><polyline points="474.7,579.4 492.2,520.4" fill="none" stroke="#2563eb" stroke-width="2"/><polyline points="372.7,638.3 390.2,579.2" fill="none" stroke="#2563eb" stroke-width="2"/><polyline points="270.7,697.2 288.2,638.2" fill="none" stroke="#2563eb" stroke-width="2"/><polyline points="699.0,591.2 716.5,532.7" fill="none" stroke="#2563eb" stroke-width="2"/><polyline points="597.1,650.1 614.6,591.6" fill="none" stroke="#2563eb" stroke-width="2"/><polyline points="495.1,709.0 512.6,650.5" fill="none" stroke="#2563eb" stroke-width="2"/><polyline points="393.1,767.8 410.6,709.4" fill="none" stroke="#2563eb" stroke-width="2"/><polyline points="349.4,319.6 375.7,265.9" fill="none" stroke="#2563eb" stroke-width="2"/><polyline points="247.5,378.6 273.7,324.9" fill="none" stroke="#2563eb" stroke-width="2"/><polyline points="145.5,437.4 171.8,383.8" fill="none" stroke="#2563eb" stroke-width="2"/><polyline points="43.5,496.4 69.8,442.7" fill="none" stroke="#2563eb" stroke-width="2"/><polyline points="471.8,390.9 498.1,337.6" fill="none" stroke="#2563eb" stroke-width="2"/><polyline points="369.8,449.8 396.1,396.6" fill="none" stroke="#2563eb" stroke-width="2"/><polyline points="267.8,508.7 294.1,455.4" fill="none" stroke="#2563eb" stroke-width="2"/><polyline points="165.9,567.6 192.2,514.4" fill="none" stroke="#2563eb" stroke-width="2"/><polyline points="594.2,461.4 620.5,408.1" fill="none" stroke="#2563eb" stroke-width="2"/><polyline points="492.2,520.4 518.5,467.1" fill="none" stroke="#2563eb" stroke-width="2"/><polyline points="390.2,579.2 416.5,525.9" fill="none" stroke="#2563eb" stroke-width="2"/><polyline points="288.2,638.2 314.5,584.9" fill="none" stroke="#2563eb" stroke-width="2"/><polyline points="716.5,532.7 742.8,479.8" fill="none" stroke="#2563eb" stroke-width="2"/><polyline points="614.6,591.6 640.9,538.8" fill="none" stroke="#2563eb" stroke-width="2"/><polyline points="512.6,650.5 538.9,597.6" fill="none" stroke="#2563eb" stroke-width="2"/><polyline points="410.6,709.4 436.9,656.6" fill="none" stroke="#2563eb" stroke-width="2"/><polyline points="375.7,265.9 399.4,210.7" fill="none" stroke="#2563eb" stroke-width="2"/><polyline points="273.7,324.9 297.4,269.7" fill="none" stroke="#2563eb" stroke-width="2"/><polyline points="171.8,383.8 195.5,328.5" fill="none" stroke="#2563eb" stroke-width="2"/><polyline points="69.8,442.7 93.5,387.5" fill="none" stroke="#2563eb" stroke-width="2"/><polyline points="498.1,337.6 521.8,282.6" fill="none" stroke="#2563eb" stroke-width="2"/><polyline points="396.1,396.6 419.8,341.6" fill="none" stroke="#2563eb" stroke-width="2"/><polyline points="294.1,455.4 317.8,400.5" fill="none" stroke="#2563eb" stroke-width="2"/><polyline points="192.2,514.4 215.9,459.5" fill="none" stroke="#2563eb" stroke-width="2"/><polyline points="620.5,408.1 644.2,353.1" fill="none" stroke="#2563eb" stroke-width="2"/><polyline points="518.5,467.1 542.2,412.1" fill="none" stroke="#2563eb" stroke-width="2"/><polyline points="416.5,525.9 440.2,470.9" fill="none" stroke="#2563eb" stroke-width="2"/><polyline points="314.5,584.9 338.2,529.9" fill="none" stroke="#2563eb" stroke-width="2"/><polyline points="742.8,479.8 766.5,425.0" fill="none" stroke="#2563eb" stroke-width="2"/><polyline points="640.9,538.8 664.6,484.0" fill="none" stroke="#2563eb" stroke-width="2"/><polyline points="538.9,597.6 562.6,542.9" fill="none" stroke="#2563eb" stroke-width="2"/><polyline points="436.9,656.6 460.6,601.9" fill="none" stroke="#2563eb" stroke-width="2"/><polyline points="399.4,210.7 416.9,151.5" fill="none" stroke="#2563eb" stroke-width="2"/><polyline points="297.4,269.7 314.9,210.5" fill="none" stroke="#2563eb" stroke-width="2"/><polyline points="195.5,328.5 213.0,269.3" fill="none" stroke="#2563eb" stroke-width="2"/><polyline points="93.5,387.5 111.0,328.3" fill="none" stroke="#2563eb" stroke-width="2"/><polyline points="521.8,282.6 539.3,223.5" fill="none" stroke="#2563eb" stroke-width="2"/><polyline points="419.8,341.6 437.3,282.5" fill="none" stroke="#2563eb" stroke-width="2"/><polyline points="317.8,400.5 335.3,341.4" fill="none" stroke="#2563eb" stroke-width="2"/><polyline points="215.9,459.5 233.4,400.4" fill="none" stroke="#2563eb" stroke-width="2"/><polyline points="644.2,353.1 661.7,294.0" fill="none" stroke="#2563eb" stroke-width="2"/><polyline points="542.2,412.1 559.7,353.0" fill="none" stroke="#2563eb" stroke-width="2"/><polyline points="440.2,470.9 457.7,411.9" fill="none" stroke="#2563eb" stroke-width="2"/><polyline points="338.2,529.9 355.7,470.9" fill="none" stroke="#2563eb" stroke-width="2"/><polyline points="766.5,425.0 784.0,366.1" fill="none" stroke="#2563eb" stroke-width="2"/><polyline points="664.6,484.0 682.1,425.1" fill="none" stroke="#2563eb" stroke-width="2"/><polyline points="562.6,542.9 580.1,483.9" fill="none" stroke="#2563eb" stroke-width="2"/><polyline points="460.6,601.9 478.1,542.9" fill="none" stroke="#2563eb" stroke-width="2"/><polyline points="416.9,151.5 426.9,87.4" fill="none" stroke="#2563eb" stroke-width="2"/><polyline points="314.9,210.5 324.9,146.4" fill="none" stroke="#2563eb" stroke-width="2"/><polyline points="213.0,269.3 222.9,205.2" fill="none" stroke="#2563eb" stroke-width="2"/><polyline points="111.0,328.3 121.0,264.2" fill="none" stroke="#2563eb" stroke-width="2"/><polyline points="539.3,223.5 549.3,159.5" fill="none" stroke="#2563eb" stroke-width="2"/><polyline points="437.3,282.5 447.3,218.5" fill="none" stroke="#2563eb" stroke-width="2"/><polyline points="335.3,341.4 345.3,277.3" fill="none" stroke="#2563eb" stroke-width="2"/><polyline points="233.4,400.4 243.3,336.3" fill="none" stroke="#2563eb" stroke-width="2"/><polyline points="661.7,294.0 671.6,229.9" fill="none" stroke="#2563eb" stroke-width="2"/><polyline points="559.7,353.0 569.7,288.9" fill="none" stroke="#2563eb" stroke-width="2"/><polyline points="457.7,411.9 467.7,347.8" fill="none" stroke="#2563eb" stroke-width="2"/><polyline points="355.7,470.9 365.7,406.8" fill="none" stroke="#2563eb" stroke-width="2"/><polyline points="784.0,366.1 794.0,302.0" fill="none" stroke="#2563eb" stroke-width="2"/><polyline points="682.1,425.1 692.0,361.0" fill="none" stroke="#2563eb" stroke-width="2"/><polyline points="580.1,483.9 590.0,419.9" fill="none" stroke="#2563eb" stroke-width="2"/><polyline points="478.1,542.9 488.1,478.9" fill="none" stroke="#2563eb" stroke-width="2"/><polyline points="349.4,319.6 471.8,390.9" fill="none" stroke="#2563eb" stroke-width="2"/><polyline points="471.8,390.9 594.2,461.4" fill="none" stroke="#2563eb" stroke-width="2"/><polyline points="594.2,461.4 716.5,532.7" fill="none" stroke="#2563eb" stroke-width="2"/><polyline points="247.5,378.6 369.8,449.8" fill="none" stroke="#2563eb" stroke-width="2"/><polyline points="369.8,449.8 492.2,520.4" fill="none" stroke="#2563eb" stroke-width="2"/><polyline points="492.2,520.4 614.6,591.6" fill="none" stroke="#2563eb" stroke-width="2"/><polyline points="145.5,437.4 267.8,508.7" fill="none" stroke="#2563eb" stroke-width="2"/><polyline points="267.8,508.7 390.2,579.2" fill="none" stroke="#2563eb" stroke-width="2"/><polyline points="390.2,579.2 512.6,650.5" fill="none" stroke="#2563eb" stroke-width="2"/><polyline points="43.5,496.4 165.9,567.6" fill="none" stroke="#2563eb" stroke-width="2"/><polyline points="165.9,567.6 288.2,638.2" fill="none" stroke="#2563eb" stroke-width="2"/><polyline points="288.2,638.2 410.6,709.4" fill="none" stroke="#2563eb" stroke-width="2"/><polyline points="349.4,319.6 247.5,378.6" fill="none" stroke="#2563eb" stroke-width="2"/><polyline points="247.5,378.6 145.5,437.4" fill="none" stroke="#2563eb" stroke-width="2"/><polyline points="145.5,437.4 43.5,496.4" fill="none" stroke="#2563eb" stroke-width="2"/><polyline points="471.8,390.9 369.8,449.8" fill="none" stroke="#2563eb" stroke-width="2"/><polyline points="369.8,449.8 267.8,508.7" fill="none" stroke="#2563eb" stroke-width="2"/><polyline points="267.8,508.7 165.9,567.6" fill="none" stroke="#2563eb" stroke-width="2"/><polyline points="594.2,461.4 492.2,520.4" fill="none" stroke="#2563eb" stroke-width="2"/><polyline points="492.2,520.4 390.2,579.2" fill="none" stroke="#2563eb" stroke-width="2"/><polyline points="390.2,579.2 288.2,638.2" fill="none" stroke="#2563eb" stroke-width="2"/><polyline points="716.5,532.7 614.6,591.6" fill="none" stroke="#2563eb" stroke-width="2"/><polyline points="614.6,591.6 512.6,650.5" fill="none" stroke="#2563eb" stroke-width="2"/><polyline points="512.6,650.5 410.6,709.4" fill="none" stroke="#2563eb" stroke-width="2"/><polyline points="375.7,265.9 498.1,337.6" fill="none" stroke="#2563eb" stroke-width="2"/><polyline points="498.1,337.6 620.5,408.1" fill="none" stroke="#2563eb" stroke-width="2"/><polyline points="620.5,408.1 742.8,479.8" fill="none" stroke="#2563eb" stroke-width="2"/><polyline points="273.7,324.9 396.1,396.6" fill="none" stroke="#2563eb" stroke-width="2"/><polyline points="396.1,396.6 518.5,467.1" fill="none" stroke="#2563eb" stroke-width="2"/><polyline points="518.5,467.1 640.9,538.8" fill="none" stroke="#2563eb" stroke-width="2"/><polyline points="171.8,383.8 294.1,455.4" fill="none" stroke="#2563eb" stroke-width="2"/><polyline points="294.1,455.4 416.5,525.9" fill="none" stroke="#2563eb" stroke-width="2"/><polyline points="416.5,525.9 538.9,597.6" fill="none" stroke="#2563eb" stroke-width="2"/><polyline points="69.8,442.7 192.2,514.4" fill="none" stroke="#2563eb" stroke-width="2"/><polyline points="192.2,514.4 314.5,584.9" fill="none" stroke="#2563eb" stroke-width="2"/><polyline points="314.5,584.9 436.9,656.6" fill="none" stroke="#2563eb" stroke-width="2"/><polyline points="375.7,265.9 273.7,324.9" fill="none" stroke="#2563eb" stroke-width="2"/><polyline points="273.7,324.9 171.8,383.8" fill="none" stroke="#2563eb" stroke-width="2"/><polyline points="171.8,383.8 69.8,442.7" fill="none" stroke="#2563eb" stroke-width="2"/><polyline points="498.1,337.6 396.1,396.6" fill="none" stroke="#2563eb" stroke-width="2"/><polyline points="396.1,396.6 294.1,455.4" fill="none" stroke="#2563eb" stroke-width="2"/><polyline points="294.1,455.4 192.2,514.4" fill="none" stroke="#2563eb" stroke-width="2"/><polyline points="620.5,408.1 518.5,467.1" fill="none" stroke="#2563eb" stroke-width="2"/><polyline points="518.5,467.1 416.5,525.9" fill="none" stroke="#2563eb" stroke-width="2"/><polyline points="416.5,525.9 314.5,584.9" fill="none" stroke="#2563eb" stroke-width="2"/><polyline points="742.8,479.8 640.9,538.8" fill="none" stroke="#2563eb" stroke-width="2"/><polyline points="640.9,538.8 538.9,597.6" fill="none" stroke="#2563eb" stroke-width="2"/><polyline points="538.9,597.6 436.9,656.6" fill="none" stroke="#2563eb" stroke-width="2"/><polyline points="399.4,210.7 521.8,282.6" fill="none" stroke="#2563eb" stroke-width="2"/><polyline points="521.8,282.6 644.2,353.1" fill="none" stroke="#2563eb" stroke-width="2"/><polyline points="644.2,353.1 766.5,425.0" fill="none" stroke="#2563eb" stroke-width="2"/><polyline points="297.4,269.7 419.8,341.6" fill="none" stroke="#2563eb" stroke-width="2"/><polyline points="419.8,341.6 542.2,412.1" fill="none" stroke="#2563eb" stroke-width="2"/><polyline points="542.2,412.1 664.6,484.0" fill="none" stroke="#2563eb" stroke-width="2"/><polyline points="195.5,328.5 317.8,400.5" fill="none" stroke="#2563eb" stroke-width="2"/><polyline points="317.8,400.5 440.2,470.9" fill="none" stroke="#2563eb" stroke-width="2"/><polyline points="440.2,470.9 562.6,542.9" fill="none" stroke="#2563eb" stroke-width="2"/><polyline points="93.5,387.5 215.9,459.5" fill="none" stroke="#2563eb" stroke-width="2"/><polyline points="215.9,459.5 338.2,529.9" fill="none" stroke="#2563eb" stroke-width="2"/><polyline points="338.2,529.9 460.6,601.9" fill="none" stroke="#2563eb" stroke-width="2"/><polyline points="399.4,210.7 297.4,269.7" fill="none" stroke="#2563eb" stroke-width="2"/><polyline points="297.4,269.7 195.5,328.5" fill="none" stroke="#2563eb" stroke-width="2"/><polyline points="195.5,328.5 93.5,387.5" fill="none" stroke="#2563eb" stroke-width="2"/><polyline points="521.8,282.6 419.8,341.6" fill="none" stroke="#2563eb" stroke-width="2"/><polyline points="419.8,341.6 317.8,400.5" fill="none" stroke="#2563eb" stroke-width="2"/><polyline points="317.8,400.5 215.9,459.5" fill="none" stroke="#2563eb" stroke-width="2"/><polyline points="644.2,353.1 542.2,412.1" fill="none" stroke="#2563eb" stroke-width="2"/><polyline points="542.2,412.1 440.2,470.9" fill="none" stroke="#2563eb" stroke-width="2"/><polyline points="440.2,470.9 338.2,529.9" fill="none" stroke="#2563eb" stroke-width="2"/><polyline points="766.5,425.0 664.6,484.0" fill="none" stroke="#2563eb" stroke-width="2"/><polyline points="664.6,484.0 562.6,542.9" fill="none" stroke="#2563eb" stroke-width="2"/><polyline points="562.6,542.9 460.6,601.9" fill="none" stroke="#2563eb" stroke-width="2"/><polyline points="416.9,151.5 539.3,223.5" fill="none" stroke="#2563eb" stroke-width="2"/><polyline points="539.3,223.5 661.7,294.0" fill="none" stroke="#2563eb" stroke-width="2"/><polyline points="661.7,294.0 784.0,366.1" fill="none" stroke="#2563eb" stroke-width="2"/><polyline points="314.9,210.5 437.3,282.5" fill="none" stroke="#2563eb" stroke-width="2"/><polyline points="437.3,282.5 559.7,353.0" fill="none" stroke="#2563eb" stroke-width="2"/><polyline points="559.7,353.0 682.1,425.1" fill="none" stroke="#2563eb" stroke-width="2"/><polyline points="213.0,269.3 335.3,341.4" fill="none" stroke="#2563eb" stroke-width="2"/><polyline points="335.3,341.4 457.7,411.9" fill="none" stroke="#2563eb" stroke-width="2"/><polyline points="457.7,411.9 580.1,483.9" fill="none" stroke="#2563eb" stroke-width="2"/><polyline points="111.0,328.3 233.4,400.4" fill="none" stroke="#2563eb" stroke-width="2"/><polyline points="233.4,400.4 355.7,470.9" fill="none" stroke="#2563eb" stroke-width="2"/><polyline points="355.7,470.9 478.1,542.9" fill="none" stroke="#2563eb" stroke-width="2"/><polyline points="416.9,151.5 314.9,210.5" fill="none" stroke="#2563eb" stroke-width="2"/><polyline points="314.9,210.5 213.0,269.3" fill="none" stroke="#2563eb" stroke-width="2"/><polyline points="213.0,269.3 111.0,328.3" fill="none" stroke="#2563eb" stroke-width="2"/><polyline points="539.3,223.5 437.3,282.5" fill="none" stroke="#2563eb" stroke-width="2"/><polyline points="437.3,282.5 335.3,341.4" fill="none" stroke="#2563eb" stroke-width="2"/><polyline points="335.3,341.4 233.4,400.4" fill="none" stroke="#2563eb" stroke-width="2"/><polyline points="661.7,294.0 559.7,353.0" fill="none" stroke="#2563eb" stroke-width="2"/><polyline points="559.7,353.0 457.7,411.9" fill="none" stroke="#2563eb" stroke-width="2"/><polyline points="457.7,411.9 355.7,470.9" fill="none" stroke="#2563eb" stroke-width="2"/><polyline points="784.0,366.1 682.1,425.1" fill="none" stroke="#2563eb" stroke-width="2"/><polyline points="682.1,425.1 580.1,483.9" fill="none" stroke="#2563eb" stroke-width="2"/><polyline points="580.1,483.9 478.1,542.9" fill="none" stroke="#2563eb" stroke-width="2"/><polyline points="426.9,87.4 549.3,159.5" fill="none" stroke="#2563eb" stroke-width="2"/><polyline points="549.3,159.5 671.6,229.9" fill="none" stroke="#2563eb" stroke-width="2"/><polyline points="671.6,229.9 794.0,302.0" fill="none" stroke="#2563eb" stroke-width="2"/><polyline points="324.9,146.4 447.3,218.5" fill="none" stroke="#2563eb" stroke-width="2"/><polyline points="447.3,218.5 569.7,288.9" fill="none" stroke="#2563eb" stroke-width="2"/><polyline points="569.7,288.9 692.0,361.0" fill="none" stroke="#2563eb" stroke-width="2"/><polyline points="222.9,205.2 345.3,277.3" fill="none" stroke="#2563eb" stroke-width="2"/><polyline points="345.3,277.3 467.7,347.8" fill="none" stroke="#2563eb" stroke-width="2"/><polyline points="467.7,347.8 590.0,419.9" fill="none" stroke="#2563eb" stroke-width="2"/><polyline points="121.0,264.2 243.3,336.3" fill="none" stroke="#2563eb" stroke-width="2"/><polyline points="243.3,336.3 365.7,406.8" fill="none" stroke="#2563eb" stroke-width="2"/><polyline points="365.7,406.8 488.1,478.9" fill="none" stroke="#2563eb" stroke-width="2"/><polyline points="426.9,87.4 324.9,146.4" fill="none" stroke="#2563eb" stroke-width="2"/><polyline points="324.9,146.4 222.9,205.2" fill="none" stroke="#2563eb" stroke-width="2"/><polyline points="222.9,205.2 121.0,264.2" fill="none" stroke="#2563eb" stroke-width="2"/><polyline points="549.3,159.5 447.3,218.5" fill="none" stroke="#2563eb" stroke-width="2"/><polyline points="447.3,218.5 345.3,277.3" fill="none" stroke="#2563eb" stroke-width="2"/><polyline points="345.3,277.3 243.3,336.3" fill="none" stroke="#2563eb" stroke-width="2"/><polyline points="671.6,229.9 569.7,288.9" fill="none" stroke="#2563eb" stroke-width="2"/><polyline points="569.7,288.9 467.7,347.8" fill="none" stroke="#2563eb" stroke-width="2"/><polyline points="467.7,347.8 365.7,406.8" fill="none" stroke="#2563eb" stroke-width="2"/><polyline points="794.0,302.0 692.0,361.0" fill="none" stroke="#2563eb" stroke-width="2"/><polyline points="692.0,361.0 590.0,419.9" fill="none" stroke="#2563eb" stroke-width="2"/><polyline points="590.0,419.9 488.1,478.9" fill="none" stroke="#2563eb" stroke-width="2"/><rect x="327.9" y="375.3" width="8" height="8" fill="#0f766e" stroke="#fff" stroke-width="0.8"/><rect x="226.0" y="434.1" width="8" height="8" fill="#0f766e" stroke="#fff" stroke-width="0.8"/><rect x="124.0" y="493.0" width="8" height="8" fill="#0f766e" stroke="#fff" stroke-width="0.8"/><rect x="22.0" y="551.9" width="8" height="8" fill="#0f766e" stroke="#fff" stroke-width="0.8"/><rect x="450.3" y="445.9" width="8" height="8" fill="#0f766e" stroke="#fff" stroke-width="0.8"/><rect x="348.3" y="504.8" width="8" height="8" fill="#0f766e" stroke="#fff" stroke-width="0.8"/><rect x="246.3" y="563.7" width="8" height="8" fill="#0f766e" stroke="#fff" stroke-width="0.8"/><rect x="144.4" y="622.5" width="8" height="8" fill="#0f766e" stroke="#fff" stroke-width="0.8"/><rect x="572.7" y="516.6" width="8" height="8" fill="#0f766e" stroke="#fff" stroke-width="0.8"/><rect x="470.7" y="575.4" width="8" height="8" fill="#0f766e" stroke="#fff" stroke-width="0.8"/><rect x="368.7" y="634.3" width="8" height="8" fill="#0f766e" stroke="#fff" stroke-width="0.8"/><rect x="266.7" y="693.2" width="8" height="8" fill="#0f766e" stroke="#fff" stroke-width="0.8"/><rect x="695.0" y="587.2" width="8" height="8" fill="#0f766e" stroke="#fff" stroke-width="0.8"/><rect x="593.1" y="646.1" width="8" height="8" fill="#0f766e" stroke="#fff" stroke-width="0.8"/><rect x="491.1" y="705.0" width="8" height="8" fill="#0f766e" stroke="#fff" stroke-width="0.8"/><rect x="389.1" y="763.8" width="8" height="8" fill="#0f766e" stroke="#fff" stroke-width="0.8"/></svg>