<svg xmlns="http://www.w3.org/2000/svg" viewBox="0 0 820 805" width="820" height="805"><rect width="820" height="805" fill="#ffffff"/><polygon points="336.5,384.6 398.6,420.4 398.6,348.7 336.5,312.9" fill="#dbeafe" fill-opacity="0.5" stroke="#94a3b8" stroke-width="0.8"/><polygon points="26.0,563.9 88.1,599.7 88.1,528.0 26.0,492.1" fill="#dbeafe" fill-opacity="0.5" stroke="#94a3b8" stroke-width="0.8"/><polygon points="398.6,420.4 460.7,456.3 460.7,384.6 398.6,348.7" fill="#dbeafe" fill-opacity="0.5" stroke="#94a3b8" stroke-width="0.8"/><polygon points="88.1,599.7 150.2,635.6 150.2,563.9 88.1,528.0" fill="#dbeafe" fill-opacity="0.5" stroke="#94a3b8" stroke-width="0.8"/><polygon points="460.7,456.3 522.9,492.1 522.9,420.4 460.7,384.6" fill="#dbeafe" fill-opacity="0.5" stroke="#94a3b8" stroke-width="0.8"/><polygon points="150.2,635.6 212.3,671.4 212.3,599.7 150.2,563.9" fill="#dbeafe" fill-opacity="0.5" stroke="#94a3b8" stroke-width="0.8"/><polygon points="522.9,492.1 585.0,528.0 585.0,456.3 522.9,420.4" fill="#dbeafe" fill-opacity="0.5" stroke="#94a3b8" stroke-width="0.8"/><polygon points="212.3,671.4 274.4,707.3 274.4,635.6 212.3,599.7" fill="#dbeafe" fill-opacity="0.5" stroke="#94a3b8" stroke-width="0.8"/><polygon points="585.0,528.0 647.1,563.9 647.1,492.1 585.0,456.3" fill="#dbeafe" fill-opacity="0.5" stroke="#94a3b8" stroke-width="0.8"/><polygon points="274.4,707.3 336.5,743.1 336.5,671.4 274.4,635.6" fill="#dbeafe" fill-opacity="0.5" stroke="#94a3b8" stroke-width="0.8"/><polygon points="647.1,563.9 709.2,599.7 709.2,528.0 647.1,492.1" fill="#dbeafe" fill-opacity="0.5" stroke="#94a3b8" stroke-width="0.8"/><polygon points="336.5,743.1 398.6,779.0 398.6,707.3 336.5,671.4" fill="#dbeafe" fill-opacity="0.5" stroke="#94a3b8" stroke-width="0.8"/><polygon points="336.5,384.6 274.4,420.4 274.4,348.7 336.5,312.9" fill="#dbeafe" fill-opacity="0.5" stroke="#94a3b8" stroke-width="0.8"/><polygon points="709.2,599.7 647.1,635.6 647.1,563.9 709.2,528.0" fill="#dbeafe" fill-opacity="0.5" stroke="#94a3b8" stroke-width="0.8"/><polygon points="274.4,420.4 212.3,456.3 212.3,384.6 274.4,348.7" fill="#dbeafe" fill-opacity="0.5" stroke="#94a3b8" stroke-width="0.8"/><polygon points="647.1,635.6 585.0,671.4 585.0,599.7 647.1,563.9" fill="#dbeafe" fill-opacity="0.5" stroke="#94a3b8" stroke-width="0.8"/><polygon points="212.3,456.3 150.2,492.1 150.2,420.4 212.3,384.6" fill="#dbeafe" fill-opacity="0.5" stroke="#94a3b8" stroke-width="0.8"/><polygon points="585.0,671.4 522.9,707.3 522.9,635.6 585.0,599.7" fill="#dbeafe" fill-opacity="0.5" stroke="#94a3b8" stroke-width="0.8"/><polygon points="150.2,492.1 88.1,528.0 88.1,456.3 150.2,420.4" fill="#dbeafe" fill-opacity="0.5" stroke="#94a3b8" stroke-width="0.8"/><polygon points="522.9,707.3 460.7,743.1 460.7,671.4 522.9,635.6" fill="#dbeafe" fill-opacity="0.5" stroke="#94a3b8" stroke-width="0.8"/><polygon points="88.1,528.0 26.0,563.9 26.0,492.1 88.1,456.3" fill="#dbeafe" fill-opacity="0.5" stroke="#94a3b8" stroke-width="0.8"/><polygon points="460.7,743.1 398.6,779.0 398.6,707.3 460.7,671.4" fill="#dbeafe" fill-opacity="0.5" stroke="#94a3b8" stroke-width="0.8"/><polygon points="336.5,312.9 398.6,348.7 398.6,277.0 336.5,241.1" fill="#dbeafe" fill-opacity="0.5" stroke="#94a3b8" stroke-width="0.8"/><polygon points="26.0,492.1 88.1,528.0 88.1,456.3 26.0,420.4" fill="#dbeafe" fill-opacity="0.5" stroke="#94a3b8" stroke-width="0.8"/><polygon points="398.6,348.7 460.7,384.6 460.7,312.9 398.6,277.0" fill="#dbeafe" fill-opacity="0.5" stroke="#94a3b8" stroke-width="0.8"/><polygon points="88.1,528.0 150.2,563.9 150.2,492.1 88.1,456.3" fill="#dbeafe" fill-opacity="0.5" stroke="#94a3b8" stroke-width="0.8"/><polygon points="460.7,384.6 522.9,420.4 522.9,348.7 460.7,312.9" fill="#dbeafe" fill-opacity="0.5" stroke="#94a3b8" stroke-width="0.8"/><polygon points="150.2,563.9 212.3,599.7 212.3,528.0 150.2,492.1" fill="#dbeafe" fill-opacity="0.5" stroke="#94a3b8" stroke-width="0.8"/><polygon points="522.9,420.4 585.0,456.3 585.0,384.6 522.9,348.7" fill="#dbeafe" fill-opacity="0.5" stroke="#94a3b8" stroke-width="0.8"/><polygon points="212.3,599.7 274.4,635.6 274.4,563.9 212.3,528.0" fill="#dbeafe" fill-opacity="0.5" stroke="#94a3b8" stroke-width="0.8"/><polygon points="585.0,456.3 647.1,492.1 647.1,420.4 585.0,384.6" fill="#dbeafe" fill-opacity="0.5" stroke="#94a3b8" stroke-width="0.8"/><polygon points="274.4,635.6 336.5,671.4 336.5,599.7 274.4,563.9" fill="#dbeafe" fill-opacity="0.5" stroke="#94a3b8" stroke-width="0.8"/><polygon points="647.1,492.1 709.2,528.0 709.2,456.3 647.1,420.4" fill="#dbeafe" fill-opacity="0.5" stroke="#94a3b8" stroke-width="0.8"/><polygon points="336.5,671.4 398.6,707.3 398.6,635.6 336.5,599.7" fill="#dbeafe" fill-opacity="0.5" stroke="#94a3b8" stroke-width="0.8"/><polygon points="336.5,312.9 274.4,348.7 274.4,277.0 336.5,241.1" fill="#dbeafe" fill-opacity="0.5" stroke="#94a3b8" stroke-width="0.8"/><polygon points="709.2,528.0 647.1,563.9 647.1,492.1 709.2,456.3" fill="#dbeafe" fill-opacity="0.5" stroke="#94a3b8" stroke-width="0.8"/><polygon points="274.4,348.7 212.3,384.6 212.3,312.9 274.4,277.0" fill="#dbeafe" fill-opacity="0.5" stroke="#94a3b8" stroke-width="0.8"/><polygon points="647.1,563.9 585.0,599.7 585.0,528.0 647.1,492.1" fill="#dbeafe" fill-opacity="0.5" stroke="#94a3b8" stroke-width="0.8"/><polygon points="212.3,384.6 150.2,420.4 150.2,348.7 212.3,312.9" fill="#dbeafe" fill-opacity="0.5" stroke="#94a3b8" stroke-width="0.8"/><polygon points="585.0,599.7 522.9,635.6 522.9,563.9 585.0,528.0" fill="#dbeafe" fill-opacity="0.5" stroke="#94a3b8" stroke-width="0.8"/><polygon points="150.2,420.4 88.1,456.3 88.1,384.6 150.2,348.7" fill="#dbeafe" fill-opacity="0.5" stroke="#94a3b8" stroke-width="0.8"/><polygon points="522.9,635.6 460.7,671.4 460.7,599.7 522.9,563.9" fill="#dbeafe" fill-opacity="0.5" stroke="#94a3b8" stroke-width="0.8"/><polygon points="88.1,456.3 26.0,492.1 26.0,420.4 88.1,384.6" fill="#dbeafe" fill-opacity="0.5" stroke="#94a3b8" stroke-width="0.8"/><polygon points="460.7,671.4 398.6,707.3 398.6,635.6 460.7,599.7" fill="#dbeafe" fill-opacity="0.5" stroke="#94a3b8" stroke-width="0.8"/><polygon points="336.5,241.1 398.6,277.0 398.6,205.3 336.5,169.4" fill="#dbeafe" fill-opacity="0.5" stroke="#94a3b8" stroke-width="0.8"/><polygon points="26.0,420.4 88.1,456.3 88.1,384.6 26.0,348.7" fill="#dbeafe" fill-opacity="0.5" stroke="#94a3b8" stroke-width="0.8"/><polygon points="398.6,277.0 460.7,312.9 460.7,241.1 398.6,205.3" fill="#dbeafe" fill-opacity="0.5" stroke="#94a3b8" stroke-width="0.8"/><polygon points="88.1,456.3 150.2,492.1 150.2,420.4 88.1,384.6" fill="#dbeafe" fill-opacity="0.5" stroke="#94a3b8" stroke-width="0.8"/><polygon points="460.7,312.9 522.9,348.7 522.9,277.0 460.7,241.1" fill="#dbeafe" fill-opacity="0.5" stroke="#94a3b8" stroke-width="0.8"/><polygon points="150.2,492.1 212.3,528.0 212.3,456.3 150.2,420.4" fill="#dbeafe" fill-opacity="0.5" stroke="#94a3b8" stroke-width="0.8"/><polygon points="522.9,348.7 585.0,384.6 585.0,312.9 522.9,277.0" fill="#dbeafe" fill-opacity="0.5" stroke="#94a3b8" stroke-width="0.8"/><polygon points="212.3,528.0 274.4,563.9 274.4,492.1 212.3,456.3" fill="#dbeafe" fill-opacity="0.5" stroke="#94a3b8" stroke-width="0.8"/><polygon points="585.0,384.6 647.1,420.4 647.1,348.7 585.0,312.9" fill="#dbeafe" fill-opacity="0.5" stroke="#94a3b8" stroke-width="0.8"/><polygon points="274.4,563.9 336.5,599.7 336.5,528.0 274.4,492.1" fill="#dbeafe" fill-opacity="0.5" stroke="#94a3b8" stroke-width="0.8"/><polygon points="647.1,420.4 709.2,456.3 709.2,384.6 647.1,348.7" fill="#dbeafe" fill-opacity="0.5" stroke="#94a3b8" stroke-width="0.8"/><polygon points="336.5,599.7 398.6,635.6 398.6,563.9 336.5,528.0" fill="#dbeafe" fill-opacity="0.5" stroke="#94a3b8" stroke-width="0.8"/><polygon points="336.5,241.1 274.4,277.0 274.4,205.3 336.5,169.4" fill="#dbeafe" fill-opacity="0.5" stroke="#94a3b8" stroke-width="0.8"/><polygon points="709.2,456.3 647.1,492.1 647.1,420.4 709.2,384.6" fill="#dbeafe" fill-opacity="0.5" stroke="#94a3b8" stroke-width="0.8"/><polygon points="274.4,277.0 212.3,312.9 212.3,241.1 274.4,205.3" fill="#dbeafe" fill-opacity="0.5" stroke="#94a3b8" stroke-width="0.8"/><polygon points="647.1,492.1 585.0,528.0 585.0,456.3 647.1,420.4" fill="#dbeafe" fill-opacity="0.5" stroke="#94a3b8" stroke-width="0.8"/><polygon points="212.3,312.9 150.2,348.7 150.2,277.0 212.3,241.1" fill="#dbeafe" fill-opacity="0.5" stroke="#94a3b8" stroke-width="0.8"/><polygon points="585.0,528.0 522.9,563.9 522.9,492.1 585.0,456.3" fill="#dbeafe" fill-opacity="0.5" stroke="#94a3b8" stroke-width="0.8"/><polygon points="150.2,348.7 88.1,384.6 88.1,312.9 150.2,277.0" fill="#dbeafe" fill-opacity="0.5" stroke="#94a3b8" stroke-width="0.8"/><polygon points="522.9,563.9 460.7,599.7 460.7,528.0 522.9,492.1" fill="#dbeafe" fill-opacity="0.5" stroke="#94a3b8" stroke-width="0.8"/><polygon points="88.1,384.6 26.0,420.4 26.0,348.7 88.1,312.9" fill="#dbeafe" fill-opacity="0.5" stroke="#94a3b8" stroke-width="0.8"/><polygon points="460.7,599.7 398.6,635.6 398.6,563.9 460.7,528.0" fill="#dbeafe" fill-opacity="0.5" stroke="#94a3b8" stroke-width="0.8"/><polygon points="336.5,169.4 398.6,205.3 398.6,133.6 336.5,97.7" fill="#dbeafe" fill-opacity="0.5" stroke="#94a3b8" stroke-width="0.8"/><polygon points="26.0,348.7 88.1,384.6 88.1,312.9 26.0,277.0" fill="#dbeafe" fill-opacity="0.5" stroke="#94a3b8" stroke-width="0.8"/><polygon points="398.6,205.3 460.7,241.1 460.7,169.4 398.6,133.6" fill="#dbeafe" fill-opacity="0.5" stroke="#94a3b8" stroke-width="0.8"/><polygon points="88.1,384.6 150.2,420.4 150.2,348.7 88.1,312.9" fill="#dbeafe" fill-opacity="0.5" stroke="#94a3b8" stroke-width="0.8"/><polygon points="460.7,241.1 522.9,277.0 522.9,205.3 460.7,169.4" fill="#dbeafe" fill-opacity="0.5" stroke="#94a3b8" stroke-width="0.8"/><polygon points="150.2,420.4 212.3,456.3 212.3,384.6 150.2,348.7" fill="#dbeafe" fill-opacity="0.5" stroke="#94a3b8" stroke-width="0.8"/><polygon points="522.9,277.0 585.0,312.9 585.0,241.1 522.9,205.3" fill="#dbeafe" fill-opacity="0.5" stroke="#94a3b8" stroke-width="0.8"/><polygon points="212.3,456.3 274.4,492.1 274.4,420.4 212.3,384.6" fill="#dbeafe" fill-opacity="0.5" stroke="#94a3b8" stroke-width="0.8"/><polygon points="585.0,312.9 647.1,348.7 647.1,277.0 585.0,241.1" fill="#dbeafe" fill-opacity="0.5" stroke="#94a3b8" stroke-width="0.8"/><polygon points="274.4,492.1 336.5,528.0 336.5,456.3 274.4,420.4" fill="#dbeafe" fill-opacity="0.5" stroke="#94a3b8" stroke-width="0.8"/><polygon points="647.1,348.7 709.2,384.6 709.2,312.9 647.1,277.0" fill="#dbeafe" fill-opacity="0.5" stroke="#94a3b8" stroke-width="0.8"/><polygon points="336.5,528.0 398.6,563.9 398.6,492.1 336.5,456.3" fill="#dbeafe" fill-opacity="0.5" stroke="#94a3b8" stroke-width="0.8"/><polygon points="336.5,169.4 274.4,205.3 274.4,133.6 336.5,97.7" fill="#dbeafe" fill-opacity="0.5" stroke="#94a3b8" stroke-width="0.8"/><polygon points="709.2,384.6 647.1,420.4 647.1,348.7 709.2,312.9" fill="#dbeafe" fill-opacity="0.5" stroke="#94a3b8" stroke-width="0.8"/><polygon points="274.4,205.3 212.3,241.1 212.3,169.4 274.4,133.6" fill="#dbeafe" fill-opacity="0.5" stroke="#94a3b8" stroke-width="0.8"/><polygon points="647.1,420.4 585.0,456.3 585.0,384.6 647.1,348.7" fill="#dbeafe" fill-opacity="0.5" stroke="#94a3b8" stroke-width="0.8"/><polygon points="212.3,241.1 150.2,277.0 150.2,205.3 212.3,169.4" fill="#dbeafe" fill-opacity="0.5" stroke="#94a3b8" stroke-width="0.8"/><polygon points="585.0,456.3 522.9,492.1 522.9,420.4 585.0,384.6" fill="#dbeafe" fill-opacity="0.5" stroke="#94a3b8" stroke-width="0.8"/><polygon points="150.2,277.0 88.1,312.9 88.1,241.1 150.2,205.3" fill="#dbeafe" fill-opacity="0.5" stroke="#94a3b8" stroke-width="0.8"/><polygon points="522.9,492.1 460.7,528.0 460.7,456.3 522.9,420.4" fill="#dbeafe" fill-opacity="0.5" stroke="#94a3b8" stroke-width="0.8"/><polygon points="88.1,312.9 26.0,348.7 26.0,277.0 88.1,241.1" fill="#dbeafe" fill-opacity="0.5" stroke="#94a3b8" stroke-width="0.8"/><polygon points="460.7,528.0 398.6,563.9 398.6,492.1 460.7,456.3" fill="#dbeafe" fill-opacity="0.5" stroke="#94a3b8" stroke-width="0.8"/><polygon points="336.5,97.7 398.6,133.6 398.6,61.9 336.5,26.0" fill="#dbeafe" fill-opacity="0.5" stroke="#94a3b8" stroke-width="0.8"/><polygon points="26.0,277.0 88.1,312.9 88.1,241.1 26.0,205.3" fill="#dbeafe" fill-opacity="0.5" stroke="#94a3b8" stroke-width="0.8"/><polygon points="398.6,133.6 460.7,169.4 460.7,97.7 398.6,61.9" fill="#dbeafe" fill-opacity="0.5" stroke="#94a3b8" stroke-width="0.8"/><polygon points="88.1,312.9 150.2,348.7 150.2,277.0 88.1,241.1" fill="#dbeafe" fill-opacity="0.5" stroke="#94a3b8" stroke-width="0.8"/><polygon points="460.7,169.4 522.9,205.3 522.9,133.6 460.7,97.7" fill="#dbeafe" fill-opacity="0.5" stroke="#94a3b8" stroke-width="0.8"/><polygon points="150.2,348.7 212.3,384.6 212.3,312.9 150.2,277.0" fill="#dbeafe" fill-opacity="0.5" stroke="#94a3b8" stroke-width="0.8"/><polygon points="522.9,205.3 585.0,241.1 585.0,169.4 522.9,133.6" fill="#dbeafe" fill-opacity="0.5" stroke="#94a3b8" stroke-width="0.8"/><polygon points="212.3,384.6 274.4,420.4 274.4,348.7 212.3,312.9" fill="#dbeafe" fill-opacity="0.5" stroke="#94a3b8" stroke-width="0.8"/><polygon points="585.0,241.1 647.1,277.0 647.1,205.3 585.0,169.4" fill="#dbeafe" fill-opacity="0.5" stroke="#94a3b8" stroke-width="0.8"/><polygon points="274.4,420.4 336.5,456.3 336.5,384.6 274.4,348.7" fill="#dbeafe" fill-opacity="0.5" stroke="#94a3b8" stroke-width="0.8"/><polygon points="647.1,277.0 709.2,312.9 709.2,241.1 647.1,205.3" fill="#dbeafe" fill-opacity="0.5" stroke="#94a3b8" stroke-width="0.8"/><polygon points="336.5,456.3 398.6,492.1 398.6,420.4 336.5,384.6" fill="#dbeafe" fill-opacity="0.5" stroke="#94a3b8" stroke-width="0.8"/><polygon points="336.5,97.7 274.4,133.6 274.4,61.9 336.5,26.0" fill="#dbeafe" fill-opacity="0.5" stroke="#94a3b8" stroke-width="0.8"/><polygon points="709.2,312.9 647.1,348.7 647.1,277.0 709.2,241.1" fill="#dbeafe" fill-opacity="0.5" stroke="#94a3b8" stroke-width="0.8"/><polygon points="274.4,133.6 212.3,169.4 212.3,97.7 274.4,61.9" fill="#dbeafe" fill-opacity="0.5" stroke="#94a3b8" stroke-width="0.8"/><polygon points="647.1,348.7 585.0,384.6 585.0,312.9 647.1,277.0" fill="#dbeafe" fill-opacity="0.5" stroke="#94a3b8" stroke-width="0.8"/><polygon points="212.3,169.4 150.2,205.3 150.2,133.6 212.3,97.7" fill="#dbeafe" fill-opacity="0.5" stroke="#94a3b8" stroke-width="0.8"/><polygon points="585.0,384.6 522.9,420.4 522.9,348.7 585.0,312.9" fill="#dbeafe" fill-opacity="0.5" stroke="#94a3b8" stroke-width="0.8"/><polygon points="150.2,205.3 88.1,241.1 88.1,169.4 150.2,133.6" fill="#dbeafe" fill-opacity="0.5" stroke="#94a3b8" stroke-width="0.8"/><polygon points="522.9,420.4 460.7,456.3 460.7,384.6 522.9,348.7" fill="#dbeafe" fill-opacity="0.5" stroke="#94a3b8" stroke-width="0.8"/><polygon points="88.1,241.1 26.0,277.0 26.0,205.3 88.1,169.4" fill="#dbeafe" fill-opacity="0.5" stroke="#94a3b8" stroke-width="0.8"/><polygon points="460.7,456.3 398.6,492.1 398.6,420.4 460.7,384.6" fill="#dbeafe" fill-opacity="0.5" stroke="#94a3b8" stroke-width="0.8"/><polygon points="336.5,312.9 398.6,348.7 336.5,384.6 274.4,348.7" fill="#dbeafe" fill-opacity="0.5" stroke="#94a3b8" stroke-width="0.8"/><polygon points="274.4,348.7 336.5,384.6 274.4,420.4 212.3,384.6" fill="#dbeafe" fill-opacity="0.5" stroke="#94a3b8" stroke-width="0.8"/><polygon points="212.3,384.6 274.4,420.4 212.3,456.3 150.2,420.4" fill="#dbeafe" fill-opacity="0.5" stroke="#94a3b8" stroke-width="0.8"/><polygon points="150.2,420.4 212.3,456.3 150.2,492.1 88.1,456.3" fill="#dbeafe" fill-opacity="0.5" stroke="#94a3b8" stroke-width="0.8"/><polygon points="88.1,456.3 150.2,492.1 88.1,528.0 26.0,492.1" fill="#dbeafe" fill-opacity="0.5" stroke="#94a3b8" stroke-width="0.8"/><polygon points="398.6,348.7 460.7,384.6 398.6,420.4 336.5,384.6" fill="#dbeafe" fill-opacity="0.5" stroke="#94a3b8" stroke-width="0.8"/><polygon points="336.5,384.6 398.6,420.4 336.5,456.3 274.4,420.4" fill="#dbeafe" fill-opacity="0.5" stroke="#94a3b8" stroke-width="0.8"/><polygon points="274.4,420.4 336.5,456.3 274.4,492.1 212.3,456.3" fill="#dbeafe" fill-opacity="0.5" stroke="#94a3b8" stroke-width="0.8"/><polygon points="212.3,456.3 274.4,492.1 212.3,528.0 150.2,492.1" fill="#dbeafe" fill-opacity="0.5" stroke="#94a3b8" stroke-width="0.8"/><polygon points="150.2,492.1 212.3,528.0 150.2,563.9 88.1,528.0" fill="#dbeafe" fill-opacity="0.5" stroke="#94a3b8" stroke-width="0.8"/><polygon points="460.7,384.6 522.9,420.4 460.7,456.3 398.6,420.4" fill="#dbeafe" fill-opacity="0.5" stroke="#94a3b8" stroke-width="0.8"/><polygon points="398.6,420.4 460.7,456.3 398.6,492.1 336.5,456.3" fill="#dbeafe" fill-opacity="0.5" stroke="#94a3b8" stroke-width="0.8"/><polygon points="336.5,456.3 398.6,492.1 336.5,528.0 274.4,492.1" fill="#dbeafe" fill-opacity="0.5" stroke="#94a3b8" stroke-width="0.8"/><polygon points="274.4,492.1 336.5,528.0 274.4,563.9 212.3,528.0" fill="#dbeafe" fill-opacity="0.5" stroke="#94a3b8" stroke-width="0.8"/><polygon points="212.3,528.0 274.4,563.9 212.3,599.7 150.2,563.9" fill="#dbeafe" fill-opacity="0.5" stroke="#94a3b8" stroke-width="0.8"/><polygon points="522.9,420.4 585.0,456.3 522.9,492.1 460.7,456.3" fill="#dbeafe" fill-opacity="0.5" stroke="#94a3b8" stroke-width="0.8"/><polygon points="460.7,456.3 522.9,492.1 460.7,528.0 398.6,492.1" fill="#dbeafe" fill-opacity="0.5" stroke="#94a3b8" stroke-width="0.8"/><polygon points="398.6,492.1 460.7,528.0 398.6,563.9 336.5,528.0" fill="#dbeafe" fill-opacity="0.5" stroke="#94a3b8" stroke-width="0.8"/><polygon points="336.5,528.0 398.6,563.9 336.5,599.7 274.4,563.9" fill="#dbeafe" fill-opacity="0.5" stroke="#94a3b8" stroke-width="0.8"/><polygon points="274.4,563.9 336.5,599.7 274.4,635.6 212.3,599.7" fill="#dbeafe" fill-opacity="0.5" stroke="#94a3b8" stroke-width="0.8"/><polygon points="585.0,456.3 647.1,492.1 585.0,528.0 522.9,492.1" fill="#dbeafe" fill-opacity="0.5" stroke="#94a3b8" stroke-width="0.8"/><polygon points="522.9,492.1 585.0,528.0 522.9,563.9 460.7,528.0" fill="#dbeafe" fill-opacity="0.5" stroke="#94a3b8" stroke-width="0.8"/><polygon points="460.7,528.0 522.9,563.9 460.7,599.7 398.6,563.9" fill="#dbeafe" fill-opacity="0.5" stroke="#94a3b8" stroke-width="0.8"/><polygon points="398.6,563.9 460.7,599.7 398.6,635.6 336.5,599.7" fill="#dbeafe" fill-opacity="0.5" stroke="#94a3b8" stroke-width="0.8"/><polygon points="336.5,599.7 398.6,635.6 336.5,671.4 274.4,635.6" fill="#dbeafe" fill-opacity="0.5" stroke="#94a3b8" stroke-width="0.8"/><polygon points="647.1,492.1 709.2,528.0 647.1,563.9 585.0,528.0" fill="#dbeafe" fill-opacity="0.5" stroke="#94a3b8" stroke-width="0.8"/><polygon points="585.0,528.0 647.1,563.9 585.0,599.7 522.9,563.9" fill="#dbeafe" fill-opacity="0.5" stroke="#94a3b8" stroke-width="0.8"/><polygon points="522.9,563.9 585.0,599.7 522.9,635.6 460.7,599.7" fill="#dbeafe" fill-opacity="0.5" stroke="#94a3b8" stroke-width="0.8"/><polygon points="460.7,599.7 522.9,635.6 460.7,671.4 398.6,635.6" fill="#dbeafe" fill-opacity="0.5" stroke="#94a3b8" stroke-width="0.8"/><polygon points="398.6,635.6 460.7,671.4 398.6,707.3 336.5,671.4" fill="#dbeafe" fill-opacity="0.5" stroke="#94a3b8" stroke-width="0.8"/><polygon points="336.5,241.1 398.6,277.0 336.5,312.9 274.4,277.0" fill="#dbeafe" fill-opacity="0.5" stroke="#94a3b8" stroke-width="0.8"/><polygon points="274.4,277.0 336.5,312.9 274.4,348.7 212.3,312.9" fill="#dbeafe" fill-opacity="0.5" stroke="#94a3b8" stroke-width="0.8"/><polygon points="212.3,312.9 274.4,348.7 212.3,384.6 150.2,348.7" fill="#dbeafe" fill-opacity="0.5" stroke="#94a3b8" stroke-width="0.8"/><polygon points="150.2,348.7 212.3,384.6 150.2,420.4 88.1,384.6" fill="#dbeafe" fill-opacity="0.5" stroke="#94a3b8" stroke-width="0.8"/><polygon points="88.1,384.6 150.2,420.4 88.1,456.3 26.0,420.4" fill="#dbeafe" fill-opacity="0.5" stroke="#94a3b8" stroke-width="0.8"/><polygon points="398.6,277.0 460.7,312.9 398.6,348.7 336.5,312.9" fill="#dbeafe" fill-opacity="0.5" stroke="#94a3b8" stroke-width="0.8"/><polygon points="336.5,312.9 398.6,348.7 336.5,384.6 274.4,348.7" fill="#dbeafe" fill-opacity="0.5" stroke="#94a3b8" stroke-width="0.8"/><polygon points="274.4,348.7 336.5,384.6 274.4,420.4 212.3,384.6" fill="#dbeafe" fill-opacity="0.5" stroke="#94a3b8" stroke-width="0.8"/><polygon points="212.3,384.6 274.4,420.4 212.3,456.3 150.2,420.4" fill="#dbeafe" fill-opacity="0.5" stroke="#94a3b8" stroke-width="0.8"/><polygon points="150.2,420.4 212.3,456.3 150.2,492.1 88.1,456.3" fill="#dbeafe" fill-opacity="0.5" stroke="#94a3b8" stroke-width="0.8"/><polygon points="460.7,312.9 522.9,348.7 460.7,384.6 398.6,348.7" fill="#dbeafe" fill-opacity="0.5" stroke="#94a3b8" stroke-width="0.8"/><polygon points="398.6,348.7 460.7,384.6 398.6,420.4 336.5,384.6" fill="#dbeafe" fill-opacity="0.5" stroke="#94a3b8" stroke-width="0.8"/><polygon points="336.5,384.6 398.6,420.4 336.5,456.3 274.4,420.4" fill="#dbeafe" fill-opacity="0.5" stroke="#94a3b8" stroke-width="0.8"/><polygon points="274.4,420.4 336.5,456.3 274.4,492.1 212.3,456.3" fill="#dbeafe" fill-opacity="0.5" stroke="#94a3b8" stroke-width="0.8"/><polygon points="212.3,456.3 274.4,492.1 212.3,528.0 150.2,492.1" fill="#dbeafe" fill-opacity="0.5" stroke="#94a3b8" stroke-width="0.8"/><polygon points="522.9,348.7 585.0,384.6 522.9,420.4 460.7,384.6" fill="#dbeafe" fill-opacity="0.5" stroke="#94a3b8" stroke-width="0.8"/><polygon points="460.7,384.6 522.9,420.4 460.7,456.3 398.6,420.4" fill="#dbeafe" fill-opacity="0.5" stroke="#94a3b8" stroke-width="0.8"/><polygon points="398.6,420.4 460.7,456.3 398.6,492.1 336.5,456.3" fill="#dbeafe" fill-opacity="0.5" stroke="#94a3b8" stroke-width="0.8"/><polygon points="336.5,456.3 398.6,492.1 336.5,528.0 274.4,492.1" fill="#dbeafe" fill-opacity="0.5" stroke="#94a3b8" stroke-width="0.8"/><polygon points="274.4,492.1 336.5,528.0 274.4,563.9 212.3,528.0" fill="#dbeafe" fill-opacity="0.5" stroke="#94a3b8" stroke-width="0.8"/><polygon points="585.0,384.6 647.1,420.4 585.0,456.3 522.9,420.4" fill="#dbeafe" fill-opacity="0.5" stroke="#94a3b8" stroke-width="0.8"/><polygon points="522.9,420.4 585.0,456.3 522.9,492.1 460.7,456.3" fill="#dbeafe" fill-opacity="0.5" stroke="#94a3b8" stroke-width="0.8"/><polygon points="460.7,456.3 522.9,492.1 460.7,528.0 398.6,492.1" fill="#dbeafe" fill-opacity="0.5" stroke="#94a3b8" stroke-width="0.8"/><polygon points="398.6,492.1 460.7,528.0 398.6,563.9 336.5,528.0" fill="#dbeafe" fill-opacity="0.5" stroke="#94a3b8" stroke-width="0.8"/><polygon points="336.5,528.0 398.6,563.9 336.5,599.7 274.4,563.9" fill="#dbeafe" fill-opacity="0.5" stroke="#94a3b8" stroke-width="0.8"/><polygon points="647.1,420.4 709.2,456.3 647.1,492.1 585.0,456.3" fill="#dbeafe" fill-opacity="0.5" stroke="#94a3b8" stroke-width="0.8"/><polygon points="585.0,456.3 647.1,492.1 585.0,528.0 522.9,492.1" fill="#dbeafe" fill-opacity="0.5" stroke="#94a3b8" stroke-width="0.8"/><polygon points="522.9,492.1 585.0,528.0 522.9,563.9 460.7,528.0" fill="#dbeafe" fill-opacity="0.5" stroke="#94a3b8" stroke-width="0.8"/><polygon points="460.7,528.0 522.9,563.9 460.7,599.7 398.6,563.9" fill="#dbeafe" fill-opacity="0.5" stroke="#94a3b8" stroke-width="0.8"/><polygon points="398.6,563.9 460.7,599.7 398.6,635.6 336.5,599.7" fill="#dbeafe" fill-opacity="0.5" stroke="#94a3b8" stroke-width="0.8"/><polygon points="336.5,169.4 398.6,205.3 336.5,241.1 274.4,205.3" fill="#dbeafe" fill-opacity="0.5" stroke="#94a3b8" stroke-width="0.8"/><polygon points="274.4,205.3 336.5,241.1 274.4,277.0 212.3,241.1" fill="#dbeafe" fill-opacity="0.5" stroke="#94a3b8" stroke-width="0.8"/><polygon points="212.3,241.1 274.4,277.0 212.3,312.9 150.2,277.0" fill="#dbeafe" fill-opacity="0.5" stroke="#94a3b8" stroke-width="0.8"/><polygon points="150.2,277.0 212.3,312.9 150.2,348.7 88.1,312.9" fill="#dbeafe" fill-opacity="0.5" stroke="#94a3b8" stroke-width="0.8"/><polygon points="88.1,312.9 150.2,348.7 88.1,384.6 26.0,348.7" fill="#dbeafe" fill-opacity="0.5" stroke="#94a3b8" stroke-width="0.8"/><polygon points="398.6,205.3 460.7,241.1 398.6,277.0 336.5,241.1" fill="#dbeafe" fill-opacity="0.5" stroke="#94a3b8" stroke-width="0.8"/><polygon points="336.5,241.1 398.6,277.0 336.5,312.9 274.4,277.0" fill="#dbeafe" fill-opacity="0.5" stroke="#94a3b8" stroke-width="0.8"/><polygon points="274.4,277.0 336.5,312.9 274.4,348.7 212.3,312.9" fill="#dbeafe" fill-opacity="0.5" stroke="#94a3b8" stroke-width="0.8"/><polygon points="212.3,312.9 274.4,348.7 212.3,384.6 150.2,348.7" fill="#dbeafe" fill-opacity="0.5" stroke="#94a3b8" stroke-width="0.8"/><polygon points="150.2,348.7 212.3,384.6 150.2,420.4 88.1,384.6" fill="#dbeafe" fill-opacity="0.5" stroke="#94a3b8" stroke-width="0.8"/><polygon points="460.7,241.1 522.9,277.0 460.7,312.9 398.6,277.0" fill="#dbeafe" fill-opacity="0.5" stroke="#94a3b8" stroke-width="0.8"/><polygon points="398.6,277.0 460.7,312.9 398.6,348.7 336.5,312.9" fill="#dbeafe" fill-opacity="0.5" stroke="#94a3b8" stroke-width="0.8"/><polygon points="336.5,312.9 398.6,348.7 336.5,384.6 274.4,348.7" fill="#dbeafe" fill-opacity="0.5" stroke="#94a3b8" stroke-width="0.8"/><polygon points="274.4,348.7 336.5,384.6 274.4,420.4 212.3,384.6" fill="#dbeafe" fill-opacity="0.5" stroke="#94a3b8" stroke-width="0.8"/><polygon points="212.3,384.6 274.4,420.4 212.3,456.3 150.2,420.4" fill="#dbeafe" fill-opacity="0.5" stroke="#94a3b8" stroke-width="0.8"/><polygon points="522.9,277.0 585.0,312.9 522.9,348.7 460.7,312.9" fill="#dbeafe" fill-opacity="0.5" stroke="#94a3b8" stroke-width="0.8"/><polygon points="460.7,312.9 522.9,348.7 460.7,384.6 398.6,348.7" fill="#dbeafe" fill-opacity="0.5" stroke="#94a3b8" stroke-width="0.8"/><polygon points="398.6,348.7 460.7,384.6 398.6,420.4 336.5,384.6" fill="#dbeafe" fill-opacity="0.5" stroke="#94a3b8" stroke-width="0.8"/><polygon points="336.5,384.6 398.6,420.4 336.5,456.3 274.4,420.4" fill="#dbeafe" fill-opacity="0.5" stroke="#94a3b8" stroke-width="0.8"/><polygon points="274.4,420.4 336.5,456.3 274.4,492.1 212.3,456.3" fill="#dbeafe" fill-opacity="0.5" stroke="#94a3b8" stroke-width="0.8"/><polygon points="585.0,312.9 647.1,348.7 585.0,384.6 522.9,348.7" fill="#dbeafe" fill-opacity="0.5" stroke="#94a3b8" stroke-width="0.8"/><polygon points="522.9,348.7 585.0,384.6 522.9,420.4 460.7,384.6" fill="#dbeafe" fill-opacity="0.5" stroke="#94a3b8" stroke-width="0.8"/><polygon points="460.7,384.6 522.9,420.4 460.7,456.3 398.6,420.4" fill="#dbeafe" fill-opacity="0.5" stroke="#94a3b8" stroke-width="0.8"/><polygon points="398.6,420.4 460.7,456.3 398.6,492.1 336.5,456.3" fill="#dbeafe" fill-opacity="0.5" stroke="#94a3b8" stroke-width="0.8"/><polygon points="336.5,456.3 398.6,492.1 336.5,528.0 274.4,492.1" fill="#dbeafe" fill-opacity="0.5" stroke="#94a3b8" stroke-width="0.8"/><polygon points="647.1,348.7 709.2,384.6 647.1,420.4 585.0,384.6" fill="#dbeafe" fill-opacity="0.5" stroke="#94a3b8" stroke-width="0.8"/><polygon points="585.0,384.6 647.1,420.4 585.0,456.3 522.9,420.4" fill="#dbeafe" fill-opacity="0.5" stroke="#94a3b8" stroke-width="0.8"/><polygon points="522.9,420.4 585.0,456.3 522.9,492.1 460.7,456.3" fill="#dbeafe" fill-opacity="0.5" stroke="#94a3b8" stroke-width="0.8"/><polygon points="460.7,456.3 522.9,492.1 460.7,528.0 398.6,492.1" fill="#dbeafe" fill-opacity="0.5" stroke="#94a3b8" stroke-width="0.8"/><polygon points="398.6,492.1 460.7,528.0 398.6,563.9 336.5,528.0" fill="#dbeafe" fill-opacity="0.5" stroke="#94a3b8" stroke-width="0.8"/><polygon points="336.5,97.7 398.6,133.6 336.5,169.4 274.4,133.6" fill="#dbeafe" fill-opacity="0.5" stroke="#94a3b8" stroke-width="0.8"/><polygon points="274.4,133.6 336.5,169.4 274.4,205.3 212.3,169.4" fill="#dbeafe" fill-opacity="0.5" stroke="#94a3b8" stroke-width="0.8"/><polygon points="212.3,169.4 274.4,205.3 212.3,241.1 150.2,205.3" fill="#dbeafe" fill-opacity="0.5" stroke="#94a3b8" stroke-width="0.8"/><polygon points="150.2,205.3 212.3,241.1 150.2,277.0 88.1,241.1" fill="#dbeafe" fill-opacity="0.5" stroke="#94a3b8" stroke-width="0.8"/><polygon points="88.1,241.1 150.2,277.0 88.1,312.9 26.0,277.0" fill="#dbeafe" fill-opacity="0.5" stroke="#94a3b8" stroke-width="0.8"/><polygon points="398.6,133.6 460.7,169.4 398.6,205.3 336.5,169.4" fill="#dbeafe" fill-opacity="0.5" stroke="#94a3b8" stroke-width="0.8"/><polygon points="336.5,169.4 398.6,205.3 336.5,241.1 274.4,205.3" fill="#dbeafe" fill-opacity="0.5" stroke="#94a3b8" stroke-width="0.8"/><polygon points="274.4,205.3 336.5,241.1 274.4,277.0 212.3,241.1" fill="#dbeafe" fill-opacity="0.5" stroke="#94a3b8" stroke-width="0.8"/><polygon points="212.3,241.1 274.4,277.0 212.3,312.9 150.2,277.0" fill="#dbeafe" fill-opacity="0.5" stroke="#94a3b8" stroke-width="0.8"/><polygon points="150.2,277.0 212.3,312.9 150.2,348.7 88.1,312.9" fill="#dbeafe" fill-opacity="0.5" stroke="#94a3b8" stroke-width="0.8"/><polygon points="460.7,169.4 522.9,205.3 460.7,241.1 398.6,205.3" fill="#dbeafe" fill-opacity="0.5" stroke="#94a3b8" stroke-width="0.8"/><polygon points="398.6,205.3 460.7,241.1 398.6,277.0 336.5,241.1" fill="#dbeafe" fill-opacity="0.5" stroke="#94a3b8" stroke-width="0.8"/><polygon points="336.5,241.1 398.6,277.0 336.5,312.9 274.4,277.0" fill="#dbeafe" fill-opacity="0.5" stroke="#94a3b8" stroke-width="0.8"/><polygon points="274.4,277.0 336.5,312.9 274.4,348.7 212.3,312.9" fill="#dbeafe" fill-opacity="0.5" stroke="#94a3b8" stroke-width="0.8"/><polygon points="212.3,312.9 274.4,348.7 212.3,384.6 150.2,348.7" fill="#dbeafe" fill-opacity="0.5" stroke="#94a3b8" stroke-width="0.8"/><polygon points="522.9,205.3 585.0,241.1 522.9,277.0 460.7,241.1" fill="#dbeafe" fill-opacity="0.5" stroke="#94a3b8" stroke-width="0.8"/><polygon points="460.7,241.1 522.9,277.0 460.7,312.9 398.6,277.0" fill="#dbeafe" fill-opacity="0.5" stroke="#94a3b8" stroke-width="0.8"/><polygon points="398.6,277.0 460.7,312.9 398.6,348.7 336.5,312.9" fill="#dbeafe" fill-opacity="0.5" stroke="#94a3b8" stroke-width="0.8"/><polygon points="336.5,312.9 398.6,348.7 336.5,384.6 274.4,348.7" fill="#dbeafe" fill-opacity="0.5" stroke="#94a3b8" stroke-width="0.8"/><polygon points="274.4,348.7 336.5,384.6 274.4,420.4 212.3,384.6" fill="#dbeafe" fill-opacity="0.5" stroke="#94a3b8" stroke-width="0.8"/><polygon points="585.0,241.1 647.1,277.0 585.0,312.9 522.9,277.0" fill="#dbeafe" fill-opacity="0.5" stroke="#94a3b8" stroke-width="0.8"/><polygon points="522.9,277.0 585.0,312.9 522.9,348.7 460.7,312.9" fill="#dbeafe" fill-opacity="0.5" stroke="#94a3b8" stroke-width="0.8"/><polygon points="460.7,312.9 522.9,348.7 460.7,384.6 398.6,348.7" fill="#dbeafe" fill-opacity="0.5" stroke="#94a3b8" stroke-width="0.8"/><polygon points="398.6,348.7 460.7,384.6 398.6,420.4 336.5,384.6" fill="#dbeafe" fill-opacity="0.5" stroke="#94a3b8" stroke-width="0.8"/><polygon points="336.5,384.6 398.6,420.4 336.5,456.3 274.4,420.4" fill="#dbeafe" fill-opacity="0.5" stroke="#94a3b8" stroke-width="0.8"/><polygon points="647.1,277.0 709.2,312.9 647.1,348.7 585.0,312.9" fill="#dbeafe" fill-opacity="0.5" stroke="#94a3b8" stroke-width="0.8"/><polygon points="585.0,312.9 647.1,348.7 585.0,384.6 522.9,348.7" fill="#dbeafe" fill-opacity="0.5" stroke="#94a3b8" stroke-width="0.8"/><polygon points="522.9,348.7 585.0,384.6 522.9,420.4 460.7,384.6" fill="#dbeafe" fill-opacity="0.5" stroke="#94a3b8" stroke-width="0.8"/><polygon points="460.7,384.6 522.9,420.4 460.7,456.3 398.6,420.4" fill="#dbeafe" fill-opacity="0.5" stroke="#94a3b8" stroke-width="0.8"/><polygon points="398.6,420.4 460.7,456.3 398.6,492.1 336.5,456.3" fill="#dbeafe" fill-opacity="0.5" stroke="#94a3b8" stroke-width="0.8"/><polygon points="336.5,26.0 398.6,61.9 336.5,97.7 274.4,61.9" fill="#dbeafe" fill-opacity="0.5" stroke="#94a3b8" stroke-width="0.8"/><polygon points="274.4,61.9 336.5,97.7 274.4,133.6 212.3,97.7" fill="#dbeafe" fill-opacity="0.5" stroke="#94a3b8" stroke-width="0.8"/><polygon points="212.3,97.7 274.4,133.6 212.3,169.4 150.2,133.6" fill="#dbeafe" fill-opacity="0.5" stroke="#94a3b8" stroke-width="0.8"/><polygon points="150.2,133.6 212.3,169.4 150.2,205.3 88.1,169.4" fill="#dbeafe" fill-opacity="0.5" stroke="#94a3b8" stroke-width="0.8"/><polygon points="88.1,169.4 150.2,205.3 88.1,241.1 26.0,205.3" fill="#dbeafe" fill-opacity="0.5" stroke="#94a3b8" stroke-width="0.8"/><polygon points="398.6,61.9 460.7,97.7 398.6,133.6 336.5,97.7" fill="#dbeafe" fill-opacity="0.5" stroke="#94a3b8" stroke-width="0.8"/><polygon points="336.5,97.7 398.6,133.6 336.5,169.4 274.4,133.6" fill="#dbeafe" fill-opacity="0.5" stroke="#94a3b8" stroke-width="0.8"/><polygon points="274.4,133.6 336.5,169.4 274.4,205.3 212.3,169.4" fill="#dbeafe" fill-opacity="0.5" stroke="#94a3b8" stroke-width="0.8"/><polygon points="212.3,169.4 274.4,205.3 212.3,241.1 150.2,205.3" fill="#dbeafe" fill-opacity="0.5" stroke="#94a3b8" stroke-width="0.8"/><polygon points="150.2,205.3 212.3,241.1 150.2,277.0 88.1,241.1" fill="#dbeafe" fill-opacity="0.5" stroke="#94a3b8" stroke-width="0.8"/><polygon points="460.7,97.7 522.9,133.6 460.7,169.4 398.6,133.6" fill="#dbeafe" fill-opacity="0.5" stroke="#94a3b8" stroke-width="0.8"/><polygon points="398.6,133.6 460.7,169.4 398.6,205.3 336.5,169.4" fill="#dbeafe" fill-opacity="0.5" stroke="#94a3b8" stroke-width="0.8"/><polygon points="336.5,169.4 398.6,205.3 336.5,241.1 274.4,205.3" fill="#dbeafe" fill-opacity="0.5" stroke="#94a3b8" stroke-width="0.8"/><polygon points="274.4,205.3 336.5,241.1 274.4,277.0 212.3,241.1" fill="#dbeafe" fill-opacity="0.5" stroke="#94a3b8" stroke-width="0.8"/><polygon points="212.3,241.1 274.4,277.0 212.3,312.9 150.2,277.0" fill="#dbeafe" fill-opacity="0.5" stroke="#94a3b8" stroke-width="0.8"/><polygon points="522.9,133.6 585.0,169.4 522.9,205.3 460.7,169.4" fill="#dbeafe" fill-opacity="0.5" stroke="#94a3b8" stroke-width="0.8"/><polygon points="460.7,169.4 522.9,205.3 460.7,241.1 398.6,205.3" fill="#dbeafe" fill-opacity="0.5" stroke="#94a3b8" stroke-width="0.8"/><polygon points="398.6,205.3 460.7,241.1 398.6,277.0 336.5,241.1" fill="#dbeafe" fill-opacity="0.5" stroke="#94a3b8" stroke-width="0.8"/><polygon points="336.5,241.1 398.6,277.0 336.5,312.9 274.4,277.0" fill="#dbeafe" fill-opacity="0.5" stroke="#94a3b8" stroke-width="0.8"/><polygon points="274.4,277.0 336.5,312.9 274.4,348.7 212.3,312.9" fill="#dbeafe" fill-opacity="0.5" stroke="#94a3b8" stroke-width="0.8"/><polygon points="585.0,169.4 647.1,205.3 585.0,241.1 522.9,205.3" fill="#dbeafe" fill-opacity="0.5" stroke="#94a3b8" stroke-width="0.8"/><polygon points="522.9,205.3 585.0,241.1 522.9,277.0 460.7,241.1" fill="#dbeafe" fill-opacity="0.5" stroke="#94a3b8" stroke-width="0.8"/><polygon points="460.7,241.1 522.9,277.0 460.7,312.9 398.6,277.0" fill="#dbeafe" fill-opacity="0.5" stroke="#94a3b8" stroke-width="0.8"/><polygon points="398.6,277.0 460.7,312.9 398.6,348.7 336.5,312.9" fill="#dbeafe" fill-opacity="0.5" stroke="#94a3b8" stroke-width="0.8"/><polygon points="336.5,312.9 398.6,348.7 336.5,384.6 274.4,348.7" fill="#dbeafe" fill-opacity="0.5" stroke="#94a3b8" stroke-width="0.8"/><polygon points="647.1,205.3 709.2,241.1 647.1,277.0 585.0,241.1" fill="#dbeafe" fill-opacity="0.5" stroke="#94a3b8" stroke-width="0.8"/><polygon points="585.0,241.1 647.1,277.0 585.0,312.9 522.9,277.0" fill="#dbeafe" fill-opacity="0.5" stroke="#94a3b8" stroke-width="0.8"/><polygon points="522.9,277.0 585.0,312.9 522.9,348.7 460.7,312.9" fill="#dbeafe" fill-opacity="0.5" stroke="#94a3b8" stroke-width="0.8"/><polygon points="460.7,312.9 522.9,348.7 460.7,384.6 398.6,348.7" fill="#dbeafe" fill-opacity="0.5" stroke="#94a3b8" stroke-width="0.8"/><polygon points="398.6,348.7 460.7,384.6 398.6,420.4 336.5,384.6" fill="#dbeafe" fill-opacity="0.5" stroke="#94a3b8" stroke-width="0.8"/><rect x="332.5" y="380.6" width="8" height="8" fill="#0f766e" stroke="#fff" stroke-width="0.8"/><rect x="270.4" y="416.4" width="8" height="8" fill="#0f766e" stroke="#fff" stroke-width="0.8"/><rect x="208.3" y="452.3" width="8" height="8" fill="#0f766e" stroke="#fff" stroke-width="0.8"/><rect x="146.2" y="488.1" width="8" height="8" fill="#0f766e" stroke="#fff" stroke-width="0.8"/><rect x="84.1" y="524.0" width="8" height="8" fill="#0f766e" stroke="#fff" stroke-width="0.8"/><rect x="22.0" y="559.9" width="8" height="8" fill="#0f766e" stroke="#fff" stroke-width="0.8"/><rect x="394.6" y="416.4" width="8" height="8" fill="#0f766e" stroke="#fff" stroke-width="0.8"/><rect x="84.1" y="595.7" width="8" height="8" fill="#0f766e" stroke="#fff" stroke-width="0.8"/><rect x="456.7" y="452.3" width="8" height="8" fill="#0f766e" stroke="#fff" stroke-width="0.8"/><rect x="146.2" y="631.6" width="8" height="8" fill="#0f766e" stroke="#fff" stroke-width="0.8"/><rect x="518.9" y="488.1" width="8" height="8" fill="#0f766e" stroke="#fff" stroke-width="0.8"/><rect x="208.3" y="667.4" width="8" height="8" fill="#0f766e" stroke="#fff" stroke-width="0.8"/><rect x="581.0" y="524.0" width="8" height="8" fill="#0f766e" stroke="#fff" stroke-width="0.8"/><rect x="270.4" y="703.3" width="8" height="8" fill="#0f766e" stroke="#fff" stroke-width="0.8"/><rect x="643.1" y="559.9" width="8" height="8" fill="#0f766e" stroke="#fff" stroke-width="0.8"/><rect x="332.5" y="739.1" width="8" height="8" fill="#0f766e" stroke="#fff" stroke-width="0.8"/><rect x="705.2" y="595.7" width="8" height="8" fill="#0f766e" stroke="#fff" stroke-width="0.8"/><rect x="643.1" y="631.6" width="8" height="8" fill="#0f766e" stroke="#fff" stroke-width="0.8"/><rect x="581.0" y="667.4" width="8" height="8" fill="#0f766e" stroke="#fff" stroke-width="0.8"/><rect x="518.9" y="703.3" width="8" height="8" fill="#0f766e" stroke="#fff" stroke-width="0.8"/><rect x="456.7" y="739.1" width="8" height="8" fill="#0f766e" stroke="#fff" stroke-width="0.8"/><rect x="394.6" y="775.0" width="8" height="8" fill="#0f766e" stroke="#fff" stroke-width="0.8"/></svg>