<svg xmlns="http://www.w3.org/2000/svg" viewBox="0 0 900 542" width="900" height="542"><rect width="900" height="542" fill="#ffffff"/><polyline points="26.0,515.6 79.0,485.0" fill="none" stroke="#9aa7b8" stroke-width="1"/><polyline points="79.0,485.0 132.0,454.4" fill="none" stroke="#9aa7b8" stroke-width="1"/><polyline points="132.0,454.4 185.0,423.8" fill="none" stroke="#9aa7b8" stroke-width="1"/><polyline points="185.0,423.8 238.0,393.2" fill="none" stroke="#9aa7b8" stroke-width="1"/><polyline points="238.0,393.2 291.0,362.6" fill="none" stroke="#9aa7b8" stroke-width="1"/><polyline points="291.0,362.6 344.0,332.0" fill="none" stroke="#9aa7b8" stroke-width="1"/><polyline points="344.0,332.0 397.0,301.4" fill="none" stroke="#9aa7b8" stroke-width="1"/><polyline points="397.0,301.4 450.0,270.8" fill="none" stroke="#9aa7b8" stroke-width="1"/><polyline points="450.0,270.8 503.0,240.2" fill="none" stroke="#9aa7b8" stroke-width="1"/><polyline points="503.0,240.2 556.0,209.6" fill="none" stroke="#9aa7b8" stroke-width="1"/><polyline points="556.0,209.6 609.0,179.0" fill="none" stroke="#9aa7b8" stroke-width="1"/><polyline points="609.0,179.0 662.0,148.4" fill="none" stroke="#9aa7b8" stroke-width="1"/><polyline points="662.0,148.4 715.0,117.8" fill="none" stroke="#9aa7b8" stroke-width="1"/><polyline points="715.0,117.8 768.0,87.2" fill="none" stroke="#9aa7b8" stroke-width="1"/><polyline points="768.0,87.2 821.0,56.6" fill="none" stroke="#9aa7b8" stroke-width="1"/><polyline points="821.0,56.6 874.0,26.0" fill="none" stroke="#9aa7b8" stroke-width="1"/><polyline points="26.0,515.6 79.0,486.2" fill="none" stroke="#2563eb" stroke-width="2"/><polyline points="79.0,486.2 132.0,459.0" fill="none" stroke="#2563eb" stroke-width="2"/><polyline points="132.0,459.0 185.0,433.7" fill="none" stroke="#2563eb" stroke-width="2"/><polyline points="185.0,433.7 238.0,410.3" fill="none" stroke="#2563eb" stroke-width="2"/><polyline points="238.0,410.3 291.0,388.5" fill="none" stroke="#2563eb" stroke-width="2"/><polyline points="291.0,388.5 344.0,368.1" fill="none" stroke="#2563eb" stroke-width="2"/><polyline points="344.0,368.1 397.0,348.9" fill="none" stroke="#2563eb" stroke-width="2"/><polyline points="397.0,348.9 450.0,330.6" fill="none" stroke="#2563eb" stroke-width="2"/><polyline points="450.0,330.6 503.0,313.2" fill="none" stroke="#2563eb" stroke-width="2"/><polyline points="503.0,313.2 556.0,296.5" fill="none" stroke="#2563eb" stroke-width="2"/><polyline points="556.0,296.5 609.0,280.2" fill="none" stroke="#2563eb" stroke-width="2"/><polyline points="609.0,280.2 662.0,264.3" fill="none" stroke="#2563eb" stroke-width="2"/><polyline points="662.0,264.3 715.0,248.7" fill="none" stroke="#2563eb" stroke-width="2"/><polyline points="715.0,248.7 768.0,233.1" fill="none" stroke="#2563eb" stroke-width="2"/><polyline points="768.0,233.1 821.0,217.7" fill="none" stroke="#2563eb" stroke-width="2"/><polyline points="821.0,217.7 874.0,202.3" fill="none" stroke="#2563eb" stroke-width="2"/><rect x="22.0" y="511.6" width="8" height="8" fill="#0f766e" stroke="#fff" stroke-width="0.8"/></svg>