<svg xmlns="http://www.w3.org/2000/svg" viewBox="0 0 900 374" width="900" height="374"><rect width="900" height="374" fill="#ffffff"/><polyline points="26.0,348.1 26.0,312.7" fill="none" stroke="#9aa7b8" stroke-width="1"/><polyline points="26.0,312.7 26.0,277.3" fill="none" stroke="#9aa7b8" stroke-width="1"/><polyline points="26.0,277.3 26.0,241.8" fill="none" stroke="#9aa7b8" stroke-width="1"/><polyline points="26.0,241.8 26.0,206.4" fill="none" stroke="#9aa7b8" stroke-width="1"/><polyline points="26.0,206.4 26.0,171.0" fill="none" stroke="#9aa7b8" stroke-width="1"/><polyline points="26.0,171.0 26.0,135.6" fill="none" stroke="#9aa7b8" stroke-width="1"/><polyline points="26.0,135.6 26.0,100.2" fill="none" stroke="#9aa7b8" stroke-width="1"/><polyline points="26.0,100.2 26.0,64.8" fill="none" stroke="#9aa7b8" stroke-width="1"/><polyline points="26.0,64.8 26.0,29.4" fill="none" stroke="#9aa7b8" stroke-width="1"/><polyline points="96.8,348.1 96.8,312.7" fill="none" stroke="#9aa7b8" stroke-width="1"/><polyline points="96.8,312.7 96.8,277.3" fill="none" stroke="#9aa7b8" stroke-width="1"/><polyline points="96.8,277.3 96.8,241.8" fill="none" stroke="#9aa7b8" stroke-width="1"/><polyline points="96.8,241.8 96.8,206.4" fill="none" stroke="#9aa7b8" stroke-width="1"/><polyline points="96.8,206.4 96.8,171.0" fill="none" stroke="#9aa7b8" stroke-width="1"/><polyline points="96.8,171.0 96.8,135.6" fill="none" stroke="#9aa7b8" stroke-width="1"/><polyline points="96.8,135.6 96.8,100.2" fill="none" stroke="#9aa7b8" stroke-width="1"/><polyline points="96.8,100.2 96.8,64.8" fill="none" stroke="#9aa7b8" stroke-width="1"/><polyline points="96.8,64.8 96.8,29.4" fill="none" stroke="#9aa7b8" stroke-width="1"/><polyline points="167.6,348.1 167.6,312.7" fill="none" stroke="#9aa7b8" stroke-width="1"/><polyline points="167.6,312.7 167.6,277.3" fill="none" stroke="#9aa7b8" stroke-width="1"/><polyline points="167.6,277.3 167.6,241.8" fill="none" stroke="#9aa7b8" stroke-width="1"/><polyline points="167.6,241.8 167.6,206.4" fill="none" stroke="#9aa7b8" stroke-width="1"/><polyline points="167.6,206.4 167.6,171.0" fill="none" stroke="#9aa7b8" stroke-width="1"/><polyline points="167.6,171.0 167.6,135.6" fill="none" stroke="#9aa7b8" stroke-width="1"/><polyline points="167.6,135.6 167.6,100.2" fill="none" stroke="#9aa7b8" stroke-width="1"/><polyline points="167.6,100.2 167.6,64.8" fill="none" stroke="#9aa7b8" stroke-width="1"/><polyline points="167.6,64.8 167.6,29.4" fill="none" stroke="#9aa7b8" stroke-width="1"/><polyline points="238.5,348.1 238.5,312.7" fill="none" stroke="#9aa7b8" stroke-width="1"/><polyline points="238.5,312.7 238.5,277.3" fill="none" stroke="#9aa7b8" stroke-width="1"/><polyline points="238.5,277.3 238.5,241.8" fill="none" stroke="#9aa7b8" stroke-width="1"/><polyline points="238.5,241.8 238.5,206.4" fill="none" stroke="#9aa7b8" stroke-width="1"/><polyline points="238.5,206.4 238.5,171.0" fill="none" stroke="#9aa7b8" stroke-width="1"/><polyline points="238.5,171.0 238.5,135.6" fill="none" stroke="#9aa7b8" stroke-width="1"/><polyline points="238.5,135.6 238.5,100.2" fill="none" stroke="#9aa7b8" stroke-width="1"/><polyline points="238.5,100.2 238.5,64.8" fill="none" stroke="#9aa7b8" stroke-width="1"/><polyline points="238.5,64.8 238.5,29.4" fill="none" stroke="#9aa7b8" stroke-width="1"/><polyline points="309.3,348.1 309.3,312.7" fill="none" stroke="#9aa7b8" stroke-width="1"/><polyline points="309.3,312.7 309.3,277.3" fill="none" stroke="#9aa7b8" stroke-width="1"/><polyline points="309.3,277.3 309.3,241.8" fill="none" stroke="#9aa7b8" stroke-width="1"/><polyline points="309.3,241.8 309.3,206.4" fill="none" stroke="#9aa7b8" stroke-width="1"/><polyline points="309.3,206.4 309.3,171.0" fill="none" stroke="#9aa7b8" stroke-width="1"/><polyline points="309.3,171.0 309.3,135.6" fill="none" stroke="#9aa7b8" stroke-width="1"/><polyline points="309.3,135.6 309.3,100.2" fill="none" stroke="#9aa7b8" stroke-width="1"/><polyline points="309.3,100.2 309.3,64.8" fill="none" stroke="#9aa7b8" stroke-width="1"/><polyline points="309.3,64.8 309.3,29.4" fill="none" stroke="#9aa7b8" stroke-width="1"/><polyline points="380.1,348.1 380.1,312.7" fill="none" stroke="#9aa7b8" stroke-width="1"/><polyline points="380.1,312.7 380.1,277.3" fill="none" stroke="#9aa7b8" stroke-width="1"/><polyline points="380.1,277.3 380.1,241.8" fill="none" stroke="#9aa7b8" stroke-width="1"/><polyline points="380.1,241.8 380.1,206.4" fill="none" stroke="#9aa7b8" stroke-width="1"/><polyline points="380.1,206.4 380.1,171.0" fill="none" stroke="#9aa7b8" stroke-width="1"/><polyline points="380.1,171.0 380.1,135.6" fill="none" stroke="#9aa7b8" stroke-width="1"/><polyline points="380.1,135.6 380.1,100.2" fill="none" stroke="#9aa7b8" stroke-width="1"/><polyline points="380.1,100.2 380.1,64.8" fill="none" stroke="#9aa7b8" stroke-width="1"/><polyline points="380.1,64.8 380.1,29.4" fill="none" stroke="#9aa7b8" stroke-width="1"/><polyline points="450.9,348.1 450.9,312.7" fill="none" stroke="#9aa7b8" stroke-width="1"/><polyline points="450.9,312.7 450.9,277.3" fill="none" stroke="#9aa7b8" stroke-width="1"/><polyline points="450.9,277.3 450.9,241.8" fill="none" stroke="#9aa7b8" stroke-width="1"/><polyline points="450.9,241.8 450.9,206.4" fill="none" stroke="#9aa7b8" stroke-width="1"/><polyline points="450.9,206.4 450.9,171.0" fill="none" stroke="#9aa7b8" stroke-width="1"/><polyline points="450.9,171.0 450.9,135.6" fill="none" stroke="#9aa7b8" stroke-width="1"/><polyline points="450.9,135.6 450.9,100.2" fill="none" stroke="#9aa7b8" stroke-width="1"/><polyline points="450.9,100.2 450.9,64.8" fill="none" stroke="#9aa7b8" stroke-width="1"/><polyline points="450.9,64.8 450.9,29.4" fill="none" stroke="#9aa7b8" stroke-width="1"/><polyline points="521.8,348.1 521.8,312.7" fill="none" stroke="#9aa7b8" stroke-width="1"/><polyline points="521.8,312.7 521.8,277.3" fill="none" stroke="#9aa7b8" stroke-width="1"/><polyline points="521.8,277.3 521.8,241.8" fill="none" stroke="#9aa7b8" stroke-width="1"/><polyline points="521.8,241.8 521.8,206.4" fill="none" stroke="#9aa7b8" stroke-width="1"/><polyline points="521.8,206.4 521.8,171.0" fill="none" stroke="#9aa7b8" stroke-width="1"/><polyline points="521.8,171.0 521.8,135.6" fill="none" stroke="#9aa7b8" stroke-width="1"/><polyline points="521.8,135.6 521.8,100.2" fill="none" stroke="#9aa7b8" stroke-width="1"/><polyline points="521.8,100.2 521.8,64.8" fill="none" stroke="#9aa7b8" stroke-width="1"/><polyline points="521.8,64.8 521.8,29.4" fill="none" stroke="#9aa7b8" stroke-width="1"/><polyline points="592.6,348.1 592.6,312.7" fill="none" stroke="#9aa7b8" stroke-width="1"/><polyline points="592.6,312.7 592.6,277.3" fill="none" stroke="#9aa7b8" stroke-width="1"/><polyline points="592.6,277.3 592.6,241.8" fill="none" stroke="#9aa7b8" stroke-width="1"/><polyline points="592.6,241.8 592.6,206.4" fill="none" stroke="#9aa7b8" stroke-width="1"/><polyline points="592.6,206.4 592.6,171.0" fill="none" stroke="#9aa7b8" stroke-width="1"/><polyline points="592.6,171.0 592.6,135.6" fill="none" stroke="#9aa7b8" stroke-width="1"/><polyline points="592.6,135.6 592.6,100.2" fill="none" stroke="#9aa7b8" stroke-width="1"/><polyline points="592.6,100.2 592.6,64.8" fill="none" stroke="#9aa7b8" stroke-width="1"/><polyline points="592.6,64.8 592.6,29.4" fill="none" stroke="#9aa7b8" stroke-width="1"/><polyline points="663.4,348.1 663.4,312.7" fill="none" stroke="#9aa7b8" stroke-width="1"/><polyline points="663.4,312.7 663.4,277.3" fill="none" stroke="#9aa7b8" stroke-width="1"/><polyline points="663.4,277.3 663.4,241.8" fill="none" stroke="#9aa7b8" stroke-width="1"/><polyline points="663.4,241.8 663.4,206.4" fill="none" stroke="#9aa7b8" stroke-width="1"/><polyline points="663.4,206.4 663.4,171.0" fill="none" stroke="#9aa7b8" stroke-width="1"/><polyline points="663.4,171.0 663.4,135.6" fill="none" stroke="#9aa7b8" stroke-width="1"/><polyline points="663.4,135.6 663.4,100.2" fill="none" stroke="#9aa7b8" stroke-width="1"/><polyline points="663.4,100.2 663.4,64.8" fill="none" stroke="#9aa7b8" stroke-width="1"/><polyline points="663.4,64.8 663.4,29.4" fill="none" stroke="#9aa7b8" stroke-width="1"/><polyline points="734.2,348.1 734.2,312.7" fill="none" stroke="#9aa7b8" stroke-width="1"/><polyline points="734.2,312.7 734.2,277.3" fill="none" stroke="#9aa7b8" stroke-width="1"/><polyline points="734.2,277.3 734.2,241.8" fill="none" stroke="#9aa7b8" stroke-width="1"/><polyline points="734.2,241.8 734.2,206.4" fill="none" stroke="#9aa7b8" stroke-width="1"/><polyline points="734.2,206.4 734.2,171.0" fill="none" stroke="#9aa7b8" stroke-width="1"/><polyline points="734.2,171.0 734.2,135.6" fill="none" stroke="#9aa7b8" stroke-width="1"/><polyline points="734.2,135.6 734.2,100.2" fill="none" stroke="#9aa7b8" stroke-width="1"/><polyline points="734.2,100.2 734.2,64.8" fill="none" stroke="#9aa7b8" stroke-width="1"/><polyline points="734.2,64.8 734.2,29.4" fill="none" stroke="#9aa7b8" stroke-width="1"/><polyline points="26.0,312.7 96.8,312.7" fill="none" stroke="#9aa7b8" stroke-width="1"/><polyline points="96.8,312.7 167.6,312.7" fill="none" stroke="#9aa7b8" stroke-width="1"/><polyline points="167.6,312.7 238.5,312.7" fill="none" stroke="#9aa7b8" stroke-width="1"/><polyline points="238.5,312.7 309.3,312.7" fill="none" stroke="#9aa7b8" stroke-width="1"/><polyline points="309.3,312.7 380.1,312.7" fill="none" stroke="#9aa7b8" stroke-width="1"/><polyline points="380.1,312.7 450.9,312.7" fill="none" stroke="#9aa7b8" stroke-width="1"/><polyline points="450.9,312.7 521.8,312.7" fill="none" stroke="#9aa7b8" stroke-width="1"/><polyline points="521.8,312.7 592.6,312.7" fill="none" stroke="#9aa7b8" stroke-width="1"/><polyline points="592.6,312.7 663.4,312.7" fill="none" stroke="#9aa7b8" stroke-width="1"/><polyline points="663.4,312.7 734.2,312.7" fill="none" stroke="#9aa7b8" stroke-width="1"/><polyline points="26.0,277.3 96.8,277.3" fill="none" stroke="#9aa7b8" stroke-width="1"/><polyline points="96.8,277.3 167.6,277.3" fill="none" stroke="#9aa7b8" stroke-width="1"/><polyline points="167.6,277.3 238.5,277.3" fill="none" stroke="#9aa7b8" stroke-width="1"/><polyline points="238.5,277.3 309.3,277.3" fill="none" stroke="#9aa7b8" stroke-width="1"/><polyline points="309.3,277.3 380.1,277.3" fill="none" stroke="#9aa7b8" stroke-width="1"/><polyline points="380.1,277.3 450.9,277.3" fill="none" stroke="#9aa7b8" stroke-width="1"/><polyline points="450.9,277.3 521.8,277.3" fill="none" stroke="#9aa7b8" stroke-width="1"/><polyline points="521.8,277.3 592.6,277.3" fill="none" stroke="#9aa7b8" stroke-width="1"/><polyline points="592.6,277.3 663.4,277.3" fill="none" stroke="#9aa7b8" stroke-width="1"/><polyline points="663.4,277.3 734.2,277.3" fill="none" stroke="#9aa7b8" stroke-width="1"/><polyline points="26.0,241.8 96.8,241.8" fill="none" stroke="#9aa7b8" stroke-width="1"/><polyline points="96.8,241.8 167.6,241.8" fill="none" stroke="#9aa7b8" stroke-width="1"/><polyline points="167.6,241.8 238.5,241.8" fill="none" stroke="#9aa7b8" stroke-width="1"/><polyline points="238.5,241.8 309.3,241.8" fill="none" stroke="#9aa7b8" stroke-width="1"/><polyline points="309.3,241.8 380.1,241.8" fill="none" stroke="#9aa7b8" stroke-width="1"/><polyline points="380.1,241.8 450.9,241.8" fill="none" stroke="#9aa7b8" stroke-width="1"/><polyline points="450.9,241.8 521.8,241.8" fill="none" stroke="#9aa7b8" stroke-width="1"/><polyline points="521.8,241.8 592.6,241.8" fill="none" stroke="#9aa7b8" stroke-width="1"/><polyline points="592.6,241.8 663.4,241.8" fill="none" stroke="#9aa7b8" stroke-width="1"/><polyline points="663.4,241.8 734.2,241.8" fill="none" stroke="#9aa7b8" stroke-width="1"/><polyline points="26.0,206.4 96.8,206.4" fill="none" stroke="#9aa7b8" stroke-width="1"/><polyline points="96.8,206.4 167.6,206.4" fill="none" stroke="#9aa7b8" stroke-width="1"/><polyline points="167.6,206.4 238.5,206.4" fill="none" stroke="#9aa7b8" stroke-width="1"/><polyline points="238.5,206.4 309.3,206.4" fill="none" stroke="#9aa7b8" stroke-width="1"/><polyline points="309.3,206.4 380.1,206.4" fill="none" stroke="#9aa7b8" stroke-width="1"/><polyline points="380.1,206.4 450.9,206.4" fill="none" stroke="#9aa7b8" stroke-width="1"/><polyline points="450.9,206.4 521.8,206.4" fill="none" stroke="#9aa7b8" stroke-width="1"/><polyline points="521.8,206.4 592.6,206.4" fill="none" stroke="#9aa7b8" stroke-width="1"/><polyline points="592.6,206.4 663.4,206.4" fill="none" stroke="#9aa7b8" stroke-width="1"/><polyline points="663.4,206.4 734.2,206.4" fill="none" stroke="#9aa7b8" stroke-width="1"/><polyline points="26.0,171.0 96.8,171.0" fill="none" stroke="#9aa7b8" stroke-width="1"/><polyline points="96.8,171.0 167.6,171.0" fill="none" stroke="#9aa7b8" stroke-width="1"/><polyline points="167.6,171.0 238.5,171.0" fill="none" stroke="#9aa7b8" stroke-width="1"/><polyline points="238.5,171.0 309.3,171.0" fill="none" stroke="#9aa7b8" stroke-width="1"/><polyline points="309.3,171.0 380.1,171.0" fill="none" stroke="#9aa7b8" stroke-width="1"/><polyline points="380.1,171.0 450.9,171.0" fill="none" stroke="#9aa7b8" stroke-width="1"/><polyline points="450.9,171.0 521.8,171.0" fill="none" stroke="#9aa7b8" stroke-width="1"/><polyline points="521.8,171.0 592.6,171.0" fill="none" stroke="#9aa7b8" stroke-width="1"/><polyline points="592.6,171.0 663.4,171.0" fill="none" stroke="#9aa7b8" stroke-width="1"/><polyline points="663.4,171.0 734.2,171.0" fill="none" stroke="#9aa7b8" stroke-width="1"/><polyline points="26.0,135.6 96.8,135.6" fill="none" stroke="#9aa7b8" stroke-width="1"/><polyline points="96.8,135.6 167.6,135.6" fill="none" stroke="#9aa7b8" stroke-width="1"/><polyline points="167.6,135.6 238.5,135.6" fill="none" stroke="#9aa7b8" stroke-width="1"/><polyline points="238.5,135.6 309.3,135.6" fill="none" stroke="#9aa7b8" stroke-width="1"/><polyline points="309.3,135.6 380.1,135.6" fill="none" stroke="#9aa7b8" stroke-width="1"/><polyline points="380.1,135.6 450.9,135.6" fill="none" stroke="#9aa7b8" stroke-width="1"/><polyline points="450.9,135.6 521.8,135.6" fill="none" stroke="#9aa7b8" stroke-width="1"/><polyline points="521.8,135.6 592.6,135.6" fill="none" stroke="#9aa7b8" stroke-width="1"/><polyline points="592.6,135.6 663.4,135.6" fill="none" stroke="#9aa7b8" stroke-width="1"/><polyline points="663.4,135.6 734.2,135.6" fill="none" stroke="#9aa7b8" stroke-width="1"/><polyline points="26.0,100.2 96.8,100.2" fill="none" stroke="#9aa7b8" stroke-width="1"/><polyline points="96.8,100.2 167.6,100.2" fill="none" stroke="#9aa7b8" stroke-width="1"/><polyline points="167.6,100.2 238.5,100.2" fill="none" stroke="#9aa7b8" stroke-width="1"/><polyline points="238.5,100.2 309.3,100.2" fill="none" stroke="#9aa7b8" stroke-width="1"/><polyline points="309.3,100.2 380.1,100.2" fill="none" stroke="#9aa7b8" stroke-width="1"/><polyline points="380.1,100.2 450.9,100.2" fill="none" stroke="#9aa7b8" stroke-width="1"/><polyline points="450.9,100.2 521.8,100.2" fill="none" stroke="#9aa7b8" stroke-width="1"/><polyline points="521.8,100.2 592.6,100.2" fill="none" stroke="#9aa7b8" stroke-width="1"/><polyline points="592.6,100.2 663.4,100.2" fill="none" stroke="#9aa7b8" stroke-width="1"/><polyline points="663.4,100.2 734.2,100.2" fill="none" stroke="#9aa7b8" stroke-width="1"/><polyline points="26.0,64.8 96.8,64.8" fill="none" stroke="#9aa7b8" stroke-width="1"/><polyline points="96.8,64.8 167.6,64.8" fill="none" stroke="#9aa7b8" stroke-width="1"/><polyline points="167.6,64.8 238.5,64.8" fill="none" stroke="#9aa7b8" stroke-width="1"/><polyline points="238.5,64.8 309.3,64.8" fill="none" stroke="#9aa7b8" stroke-width="1"/><polyline points="309.3,64.8 380.1,64.8" fill="none" stroke="#9aa7b8" stroke-width="1"/><polyline points="380.1,64.8 450.9,64.8" fill="none" stroke="#9aa7b8" stroke-width="1"/><polyline points="450.9,64.8 521.8,64.8" fill="none" stroke="#9aa7b8" stroke-width="1"/><polyline points="521.8,64.8 592.6,64.8" fill="none" stroke="#9aa7b8" stroke-width="1"/><polyline points="592.6,64.8 663.4,64.8" fill="none" stroke="#9aa7b8" stroke-width="1"/><polyline points="663.4,64.8 734.2,64.8" fill="none" stroke="#9aa7b8" stroke-width="1"/><polyline points="26.0,29.4 96.8,29.4" fill="none" stroke="#9aa7b8" stroke-width="1"/><polyline points="96.8,29.4 167.6,29.4" fill="none" stroke="#9aa7b8" stroke-width="1"/><polyline points="167.6,29.4 238.5,29.4" fill="none" stroke="#9aa7b8" stroke-width="1"/><polyline points="238.5,29.4 309.3,29.4" fill="none" stroke="#9aa7b8" stroke-width="1"/><polyline points="309.3,29.4 380.1,29.4" fill="none" stroke="#9aa7b8" stroke-width="1"/><polyline points="380.1,29.4 450.9,29.4" fill="none" stroke="#9aa7b8" stroke-width="1"/><polyline points="450.9,29.4 521.8,29.4" fill="none" stroke="#9aa7b8" stroke-width="1"/><polyline points="521.8,29.4 592.6,29.4" fill="none" stroke="#9aa7b8" stroke-width="1"/><polyline points="592.6,29.4 663.4,29.4" fill="none" stroke="#9aa7b8" stroke-width="1"/><polyline points="663.4,29.4 734.2,29.4" fill="none" stroke="#9aa7b8" stroke-width="1"/><polyline points="26.0,348.1 40.7,311.8" fill="none" stroke="#2563eb" stroke-width="2"/><polyline points="40.7,311.8 63.4,275.6" fill="none" stroke="#2563eb" stroke-width="2"/><polyline points="63.4,275.6 86.1,239.6" fill="none" stroke="#2563eb" stroke-width="2"/><polyline points="86.1,239.6 107.2,203.7" fill="none" stroke="#2563eb" stroke-width="2"/><polyline points="107.2,203.7 125.7,168.0" fill="none" stroke="#2563eb" stroke-width="2"/><polyline points="125.7,168.0 141.3,132.4" fill="none" stroke="#2563eb" stroke-width="2"/><polyline points="141.3,132.4 153.3,96.9" fill="none" stroke="#2563eb" stroke-width="2"/><polyline points="153.3,96.9 161.4,61.4" fill="none" stroke="#2563eb" stroke-width="2"/><polyline points="161.4,61.4 165.8,26.0" fill="none" stroke="#2563eb" stroke-width="2"/><polyline points="96.8,348.1 111.6,312.7" fill="none" stroke="#2563eb" stroke-width="2"/><polyline points="111.6,312.7 134.3,277.2" fill="none" stroke="#2563eb" stroke-width="2"/><polyline points="134.3,277.2 156.9,241.8" fill="none" stroke="#2563eb" stroke-width="2"/><polyline points="156.9,241.8 178.0,206.4" fill="none" stroke="#2563eb" stroke-width="2"/><polyline points="178.0,206.4 196.6,170.9" fill="none" stroke="#2563eb" stroke-width="2"/><polyline points="196.6,170.9 212.1,135.5" fill="none" stroke="#2563eb" stroke-width="2"/><polyline points="212.1,135.5 224.1,100.1" fill="none" stroke="#2563eb" stroke-width="2"/><polyline points="224.1,100.1 232.2,64.6" fill="none" stroke="#2563eb" stroke-width="2"/><polyline points="232.2,64.6 236.5,29.2" fill="none" stroke="#2563eb" stroke-width="2"/><polyline points="167.6,348.1 182.5,312.7" fill="none" stroke="#2563eb" stroke-width="2"/><polyline points="182.5,312.7 205.1,277.3" fill="none" stroke="#2563eb" stroke-width="2"/><polyline points="205.1,277.3 227.8,241.9" fill="none" stroke="#2563eb" stroke-width="2"/><polyline points="227.8,241.9 248.8,206.4" fill="none" stroke="#2563eb" stroke-width="2"/><polyline points="248.8,206.4 267.4,171.0" fill="none" stroke="#2563eb" stroke-width="2"/><polyline points="267.4,171.0 282.9,135.6" fill="none" stroke="#2563eb" stroke-width="2"/><polyline points="282.9,135.6 294.9,100.2" fill="none" stroke="#2563eb" stroke-width="2"/><polyline points="294.9,100.2 303.0,64.8" fill="none" stroke="#2563eb" stroke-width="2"/><polyline points="303.0,64.8 307.3,29.4" fill="none" stroke="#2563eb" stroke-width="2"/><polyline points="238.5,348.1 253.3,312.7" fill="none" stroke="#2563eb" stroke-width="2"/><polyline points="253.3,312.7 275.9,277.3" fill="none" stroke="#2563eb" stroke-width="2"/><polyline points="275.9,277.3 298.6,241.8" fill="none" stroke="#2563eb" stroke-width="2"/><polyline points="298.6,241.8 319.6,206.4" fill="none" stroke="#2563eb" stroke-width="2"/><polyline points="319.6,206.4 338.2,171.0" fill="none" stroke="#2563eb" stroke-width="2"/><polyline points="338.2,171.0 353.7,135.6" fill="none" stroke="#2563eb" stroke-width="2"/><polyline points="353.7,135.6 365.7,100.2" fill="none" stroke="#2563eb" stroke-width="2"/><polyline points="365.7,100.2 373.9,64.8" fill="none" stroke="#2563eb" stroke-width="2"/><polyline points="373.9,64.8 378.1,29.4" fill="none" stroke="#2563eb" stroke-width="2"/><polyline points="309.3,348.1 324.2,312.7" fill="none" stroke="#2563eb" stroke-width="2"/><polyline points="324.2,312.7 346.8,277.3" fill="none" stroke="#2563eb" stroke-width="2"/><polyline points="346.8,277.3 369.4,241.8" fill="none" stroke="#2563eb" stroke-width="2"/><polyline points="369.4,241.8 390.4,206.4" fill="none" stroke="#2563eb" stroke-width="2"/><polyline points="390.4,206.4 409.0,171.0" fill="none" stroke="#2563eb" stroke-width="2"/><polyline points="409.0,171.0 424.6,135.6" fill="none" stroke="#2563eb" stroke-width="2"/><polyline points="424.6,135.6 436.6,100.2" fill="none" stroke="#2563eb" stroke-width="2"/><polyline points="436.6,100.2 444.7,64.8" fill="none" stroke="#2563eb" stroke-width="2"/><polyline points="444.7,64.8 448.9,29.4" fill="none" stroke="#2563eb" stroke-width="2"/><polyline points="380.1,348.1 395.0,312.7" fill="none" stroke="#2563eb" stroke-width="2"/><polyline points="395.0,312.7 417.6,277.3" fill="none" stroke="#2563eb" stroke-width="2"/><polyline points="417.6,277.3 440.2,241.8" fill="none" stroke="#2563eb" stroke-width="2"/><polyline points="440.2,241.8 461.3,206.4" fill="none" stroke="#2563eb" stroke-width="2"/><polyline points="461.3,206.4 479.9,171.0" fill="none" stroke="#2563eb" stroke-width="2"/><polyline points="479.9,171.0 495.4,135.6" fill="none" stroke="#2563eb" stroke-width="2"/><polyline points="495.4,135.6 507.4,100.2" fill="none" stroke="#2563eb" stroke-width="2"/><polyline points="507.4,100.2 515.5,64.8" fill="none" stroke="#2563eb" stroke-width="2"/><polyline points="515.5,64.8 519.7,29.4" fill="none" stroke="#2563eb" stroke-width="2"/><polyline points="450.9,348.1 465.8,312.7" fill="none" stroke="#2563eb" stroke-width="2"/><polyline points="465.8,312.7 488.4,277.3" fill="none" stroke="#2563eb" stroke-width="2"/><polyline points="488.4,277.3 511.1,241.8" fill="none" stroke="#2563eb" stroke-width="2"/><polyline points="511.1,241.8 532.1,206.4" fill="none" stroke="#2563eb" stroke-width="2"/><polyline points="532.1,206.4 550.7,171.0" fill="none" stroke="#2563eb" stroke-width="2"/><polyline points="550.7,171.0 566.2,135.6" fill="none" stroke="#2563eb" stroke-width="2"/><polyline points="566.2,135.6 578.2,100.2" fill="none" stroke="#2563eb" stroke-width="2"/><polyline points="578.2,100.2 586.3,64.8" fill="none" stroke="#2563eb" stroke-width="2"/><polyline points="586.3,64.8 590.6,29.4" fill="none" stroke="#2563eb" stroke-width="2"/><polyline points="521.8,348.1 536.6,312.7" fill="none" stroke="#2563eb" stroke-width="2"/><polyline points="536.6,312.7 559.2,277.3" fill="none" stroke="#2563eb" stroke-width="2"/><polyline points="559.2,277.3 581.9,241.8" fill="none" stroke="#2563eb" stroke-width="2"/><polyline points="581.9,241.8 602.9,206.4" fill="none" stroke="#2563eb" stroke-width="2"/><polyline points="602.9,206.4 621.5,171.0" fill="none" stroke="#2563eb" stroke-width="2"/><polyline points="621.5,171.0 637.0,135.6" fill="none" stroke="#2563eb" stroke-width="2"/><polyline points="637.0,135.6 649.0,100.2" fill="none" stroke="#2563eb" stroke-width="2"/><polyline points="649.0,100.2 657.2,64.8" fill="none" stroke="#2563eb" stroke-width="2"/><polyline points="657.2,64.8 661.4,29.4" fill="none" stroke="#2563eb" stroke-width="2"/><polyline points="592.6,348.1 607.4,312.7" fill="none" stroke="#2563eb" stroke-width="2"/><polyline points="607.4,312.7 630.0,277.3" fill="none" stroke="#2563eb" stroke-width="2"/><polyline points="630.0,277.3 652.7,241.8" fill="none" stroke="#2563eb" stroke-width="2"/><polyline points="652.7,241.8 673.7,206.4" fill="none" stroke="#2563eb" stroke-width="2"/><polyline points="673.7,206.4 692.3,171.0" fill="none" stroke="#2563eb" stroke-width="2"/><polyline points="692.3,171.0 707.9,135.6" fill="none" stroke="#2563eb" stroke-width="2"/><polyline points="707.9,135.6 719.9,100.2" fill="none" stroke="#2563eb" stroke-width="2"/><polyline points="719.9,100.2 728.0,64.8" fill="none" stroke="#2563eb" stroke-width="2"/><polyline points="728.0,64.8 732.3,29.4" fill="none" stroke="#2563eb" stroke-width="2"/><polyline points="663.4,348.1 678.2,312.7" fill="none" stroke="#2563eb" stroke-width="2"/><polyline points="678.2,312.7 700.8,277.3" fill="none" stroke="#2563eb" stroke-width="2"/><polyline points="700.8,277.3 723.5,241.9" fill="none" stroke="#2563eb" stroke-width="2"/><polyline points="723.5,241.9 744.6,206.5" fill="none" stroke="#2563eb" stroke-width="2"/><polyline points="744.6,206.5 763.2,171.1" fill="none" stroke="#2563eb" stroke-width="2"/><polyline points="763.2,171.1 778.7,135.7" fill="none" stroke="#2563eb" stroke-width="2"/><polyline points="778.7,135.7 790.7,100.3" fill="none" stroke="#2563eb" stroke-width="2"/><polyline points="790.7,100.3 798.8,64.9" fill="none" stroke="#2563eb" stroke-width="2"/><polyline points="798.8,64.9 803.1,29.5" fill="none" stroke="#2563eb" stroke-width="2"/><polyline points="734.2,348.1 748.9,313.6" fill="none" stroke="#2563eb" stroke-width="2"/><polyline points="748.9,313.6 771.7,278.9" fill="none" stroke="#2563eb" stroke-width="2"/><polyline points="771.7,278.9 794.4,244.1" fill="none" stroke="#2563eb" stroke-width="2"/><polyline points="794.4,244.1 815.4,209.1" fill="none" stroke="#2563eb" stroke-width="2"/><polyline points="815.4,209.1 834.0,174.0" fill="none" stroke="#2563eb" stroke-width="2"/><polyline points="834.0,174.0 849.5,138.8" fill="none" stroke="#2563eb" stroke-width="2"/><polyline points="849.5,138.8 861.5,103.5" fill="none" stroke="#2563eb" stroke-width="2"/><polyline points="861.5,103.5 869.6,68.1" fill="none" stroke="#2563eb" stroke-width="2"/><polyline points="869.6,68.1 874.0,32.7" fill="none" stroke="#2563eb" stroke-width="2"/><polyline points="40.7,311.8 111.6,312.7" fill="none" stroke="#2563eb" stroke-width="2"/><polyline points="111.6,312.7 182.5,312.7" fill="none" stroke="#2563eb" stroke-width="2"/><polyline points="182.5,312.7 253.3,312.7" fill="none" stroke="#2563eb" stroke-width="2"/><polyline points="253.3,312.7 324.2,312.7" fill="none" stroke="#2563eb" stroke-width="2"/><polyline points="324.2,312.7 395.0,312.7" fill="none" stroke="#2563eb" stroke-width="2"/><polyline points="395.0,312.7 465.8,312.7" fill="none" stroke="#2563eb" stroke-width="2"/><polyline points="465.8,312.7 536.6,312.7" fill="none" stroke="#2563eb" stroke-width="2"/><polyline points="536.6,312.7 607.4,312.7" fill="none" stroke="#2563eb" stroke-width="2"/><polyline points="607.4,312.7 678.2,312.7" fill="none" stroke="#2563eb" stroke-width="2"/><polyline points="678.2,312.7 748.9,313.6" fill="none" stroke="#2563eb" stroke-width="2"/><polyline points="63.4,275.6 134.3,277.2" fill="none" stroke="#2563eb" stroke-width="2"/><polyline points="134.3,277.2 205.1,277.3" fill="none" stroke="#2563eb" stroke-width="2"/><polyline points="205.1,277.3 275.9,277.3" fill="none" stroke="#2563eb" stroke-width="2"/><polyline points="275.9,277.3 346.8,277.3" fill="none" stroke="#2563eb" stroke-width="2"/><polyline points="346.8,277.3 417.6,277.3" fill="none" stroke="#2563eb" stroke-width="2"/><polyline points="417.6,277.3 488.4,277.3" fill="none" stroke="#2563eb" stroke-width="2"/><polyline points="488.4,277.3 559.2,277.3" fill="none" stroke="#2563eb" stroke-width="2"/><polyline points="559.2,277.3 630.0,277.3" fill="none" stroke="#2563eb" stroke-width="2"/><polyline points="630.0,277.3 700.8,277.3" fill="none" stroke="#2563eb" stroke-width="2"/><polyline points="700.8,277.3 771.7,278.9" fill="none" stroke="#2563eb" stroke-width="2"/><polyline points="86.1,239.6 156.9,241.8" fill="none" stroke="#2563eb" stroke-width="2"/><polyline points="156.9,241.8 227.8,241.9" fill="none" stroke="#2563eb" stroke-width="2"/><polyline points="227.8,241.9 298.6,241.8" fill="none" stroke="#2563eb" stroke-width="2"/><polyline points="298.6,241.8 369.4,241.8" fill="none" stroke="#2563eb" stroke-width="2"/><polyline points="369.4,241.8 440.2,241.8" fill="none" stroke="#2563eb" stroke-width="2"/><polyline points="440.2,241.8 511.1,241.8" fill="none" stroke="#2563eb" stroke-width="2"/><polyline points="511.1,241.8 581.9,241.8" fill="none" stroke="#2563eb" stroke-width="2"/><polyline points="581.9,241.8 652.7,241.8" fill="none" stroke="#2563eb" stroke-width="2"/><polyline points="652.7,241.8 723.5,241.9" fill="none" stroke="#2563eb" stroke-width="2"/><polyline points="723.5,241.9 794.4,244.1" fill="none" stroke="#2563eb" stroke-width="2"/><polyline points="107.2,203.7 178.0,206.4" fill="none" stroke="#2563eb" stroke-width="2"/><polyline points="178.0,206.4 248.8,206.4" fill="none" stroke="#2563eb" stroke-width="2"/><polyline points="248.8,206.4 319.6,206.4" fill="none" stroke="#2563eb" stroke-width="2"/><polyline points="319.6,206.4 390.4,206.4" fill="none" stroke="#2563eb" stroke-width="2"/><polyline points="390.4,206.4 461.3,206.4" fill="none" stroke="#2563eb" stroke-width="2"/><polyline points="461.3,206.4 532.1,206.4" fill="none" stroke="#2563eb" stroke-width="2"/><polyline points="532.1,206.4 602.9,206.4" fill="none" stroke="#2563eb" stroke-width="2"/><polyline points="602.9,206.4 673.7,206.4" fill="none" stroke="#2563eb" stroke-width="2"/><polyline points="673.7,206.4 744.6,206.5" fill="none" stroke="#2563eb" stroke-width="2"/><polyline points="744.6,206.5 815.4,209.1" fill="none" stroke="#2563eb" stroke-width="2"/><polyline points="125.7,168.0 196.6,170.9" fill="none" stroke="#2563eb" stroke-width="2"/><polyline points="196.6,170.9 267.4,171.0" fill="none" stroke="#2563eb" stroke-width="2"/><polyline points="267.4,171.0 338.2,171.0" fill="none" stroke="#2563eb" stroke-width="2"/><polyline points="338.2,171.0 409.0,171.0" fill="none" stroke="#2563eb" stroke-width="2"/><polyline points="409.0,171.0 479.9,171.0" fill="none" stroke="#2563eb" stroke-width="2"/><polyline points="479.9,171.0 550.7,171.0" fill="none" stroke="#2563eb" stroke-width="2"/><polyline points="550.7,171.0 621.5,171.0" fill="none" stroke="#2563eb" stroke-width="2"/><polyline points="621.5,171.0 692.3,171.0" fill="none" stroke="#2563eb" stroke-width="2"/><polyline points="692.3,171.0 763.2,171.1" fill="none" stroke="#2563eb" stroke-width="2"/><polyline points="763.2,171.1 834.0,174.0" fill="none" stroke="#2563eb" stroke-width="2"/><polyline points="141.3,132.4 212.1,135.5" fill="none" stroke="#2563eb" stroke-width="2"/><polyline points="212.1,135.5 282.9,135.6" fill="none" stroke="#2563eb" stroke-width="2"/><polyline points="282.9,135.6 353.7,135.6" fill="none" stroke="#2563eb" stroke-width="2"/><polyline points="353.7,135.6 424.6,135.6" fill="none" stroke="#2563eb" stroke-width="2"/><polyline points="424.6,135.6 495.4,135.6" fill="none" stroke="#2563eb" stroke-width="2"/><polyline points="495.4,135.6 566.2,135.6" fill="none" stroke="#2563eb" stroke-width="2"/><polyline points="566.2,135.6 637.0,135.6" fill="none" stroke="#2563eb" stroke-width="2"/><polyline points="637.0,135.6 707.9,135.6" fill="none" stroke="#2563eb" stroke-width="2"/><polyline points="707.9,135.6 778.7,135.7" fill="none" stroke="#2563eb" stroke-width="2"/><polyline points="778.7,135.7 849.5,138.8" fill="none" stroke="#2563eb" stroke-width="2"/><polyline points="153.3,96.9 224.1,100.1" fill="none" stroke="#2563eb" stroke-width="2"/><polyline points="224.1,100.1 294.9,100.2" fill="none" stroke="#2563eb" stroke-width="2"/><polyline points="294.9,100.2 365.7,100.2" fill="none" stroke="#2563eb" stroke-width="2"/><polyline points="365.7,100.2 436.6,100.2" fill="none" stroke="#2563eb" stroke-width="2"/><polyline points="436.6,100.2 507.4,100.2" fill="none" stroke="#2563eb" stroke-width="2"/><polyline points="507.4,100.2 578.2,100.2" fill="none" stroke="#2563eb" stroke-width="2"/><polyline points="578.2,100.2 649.0,100.2" fill="none" stroke="#2563eb" stroke-width="2"/><polyline points="649.0,100.2 719.9,100.2" fill="none" stroke="#2563eb" stroke-width="2"/><polyline points="719.9,100.2 790.7,100.3" fill="none" stroke="#2563eb" stroke-width="2"/><polyline points="790.7,100.3 861.5,103.5" fill="none" stroke="#2563eb" stroke-width="2"/><polyline points="161.4,61.4 232.2,64.6" fill="none" stroke="#2563eb" stroke-width="2"/><polyline points="232.2,64.6 303.0,64.8" fill="none" stroke="#2563eb" stroke-width="2"/><polyline points="303.0,64.8 373.9,64.8" fill="none" stroke="#2563eb" stroke-width="2"/><polyline points="373.9,64.8 444.7,64.8" fill="none" stroke="#2563eb" stroke-width="2"/><polyline points="444.7,64.8 515.5,64.8" fill="none" stroke="#2563eb" stroke-width="2"/><polyline points="515.5,64.8 586.3,64.8" fill="none" stroke="#2563eb" stroke-width="2"/><polyline points="586.3,64.8 657.2,64.8" fill="none" stroke="#2563eb" stroke-width="2"/><polyline points="657.2,64.8 728.0,64.8" fill="none" stroke="#2563eb" stroke-width="2"/><polyline points="728.0,64.8 798.8,64.9" fill="none" stroke="#2563eb" stroke-width="2"/><polyline points="798.8,64.9 869.6,68.1" fill="none" stroke="#2563eb" stroke-width="2"/><polyline points="165.8,26.0 236.5,29.2" fill="none" stroke="#2563eb" stroke-width="2"/><polyline points="236.5,29.2 307.3,29.4" fill="none" stroke="#2563eb" stroke-width="2"/><polyline points="307.3,29.4 378.1,29.4" fill="none" stroke="#2563eb" stroke-width="2"/><polyline points="378.1,29.4 448.9,29.4" fill="none" stroke="#2563eb" stroke-width="2"/><polyline points="448.9,29.4 519.7,29.4" fill="none" stroke="#2563eb" stroke-width="2"/><polyline points="519.7,29.4 590.6,29.4" fill="none" stroke="#2563eb" stroke-width="2"/><polyline points="590.6,29.4 661.4,29.4" fill="none" stroke="#2563eb" stroke-width="2"/><polyline points="661.4,29.4 732.3,29.4" fill="none" stroke="#2563eb" stroke-width="2"/><polyline points="732.3,29.4 803.1,29.5" fill="none" stroke="#2563eb" stroke-width="2"/><polyline points="803.1,29.5 874.0,32.7" fill="none" stroke="#2563eb" stroke-width="2"/><rect x="22.0" y="344.1" width="8" height="8" fill="#0f766e" stroke="#fff" stroke-width="0.8"/><rect x="92.8" y="344.1" width="8" height="8" fill="#0f766e" stroke="#fff" stroke-width="0.8"/><rect x="163.6" y="344.1" width="8" height="8" fill="#0f766e" stroke="#fff" stroke-width="0.8"/><rect x="234.5" y="344.1" width="8" height="8" fill="#0f766e" stroke="#fff" stroke-width="0.8"/><rect x="305.3" y="344.1" width="8" height="8" fill="#0f766e" stroke="#fff" stroke-width="0.8"/><rect x="376.1" y="344.1" width="8" height="8" fill="#0f766e" stroke="#fff" stroke-width="0.8"/><rect x="446.9" y="344.1" width="8" height="8" fill="#0f766e" stroke="#fff" stroke-width="0.8"/><rect x="517.8" y="344.1" width="8" height="8" fill="#0f766e" stroke="#fff" stroke-width="0.8"/><rect x="588.6" y="344.1" width="8" height="8" fill="#0f766e" stroke="#fff" stroke-width="0.8"/><rect x="659.4" y="344.1" width="8" height="8" fill="#0f766e" stroke="#fff" stroke-width="0.8"/><rect x="730.2" y="344.1" width="8" height="8" fill="#0f766e" stroke="#fff" stroke-width="0.8"/></svg>