<svg xmlns="http://www.w3.org/2000/svg" viewBox="0 0 940 275" width="940" height="275"><rect width="940" height="275" fill="#ffffff"/><polyline points="26.0,249.4 66.4,220.5" fill="none" stroke="#9aa7b8" stroke-width="1"/><polyline points="66.4,220.5 106.7,195.5" fill="none" stroke="#9aa7b8" stroke-width="1"/><polyline points="106.7,195.5 147.1,174.0" fill="none" stroke="#9aa7b8" stroke-width="1"/><polyline points="147.1,174.0 187.5,155.5" fill="none" stroke="#9aa7b8" stroke-width="1"/><polyline points="187.5,155.5 227.8,139.9" fill="none" stroke="#9aa7b8" stroke-width="1"/><polyline points="227.8,139.9 268.2,127.0" fill="none" stroke="#9aa7b8" stroke-width="1"/><polyline points="268.2,127.0 308.5,116.6" fill="none" stroke="#9aa7b8" stroke-width="1"/><polyline points="308.5,116.6 348.9,108.6" fill="none" stroke="#9aa7b8" stroke-width="1"/><polyline points="348.9,108.6 389.3,103.0" fill="none" stroke="#9aa7b8" stroke-width="1"/><polyline points="389.3,103.0 429.6,99.6" fill="none" stroke="#9aa7b8" stroke-width="1"/><polyline points="429.6,99.6 470.0,98.5" fill="none" stroke="#9aa7b8" stroke-width="1"/><polyline points="470.0,98.5 510.4,99.6" fill="none" stroke="#9aa7b8" stroke-width="1"/><polyline points="510.4,99.6 550.7,103.0" fill="none" stroke="#9aa7b8" stroke-width="1"/><polyline points="550.7,103.0 591.1,108.6" fill="none" stroke="#9aa7b8" stroke-width="1"/><polyline points="591.1,108.6 631.5,116.6" fill="none" stroke="#9aa7b8" stroke-width="1"/><polyline points="631.5,116.6 671.8,127.0" fill="none" stroke="#9aa7b8" stroke-width="1"/><polyline points="671.8,127.0 712.2,139.9" fill="none" stroke="#9aa7b8" stroke-width="1"/><polyline points="712.2,139.9 752.5,155.5" fill="none" stroke="#9aa7b8" stroke-width="1"/><polyline points="752.5,155.5 792.9,174.0" fill="none" stroke="#9aa7b8" stroke-width="1"/><polyline points="792.9,174.0 833.3,195.5" fill="none" stroke="#9aa7b8" stroke-width="1"/><polyline points="833.3,195.5 873.6,220.5" fill="none" stroke="#9aa7b8" stroke-width="1"/><polyline points="873.6,220.5 914.0,249.4" fill="none" stroke="#9aa7b8" stroke-width="1"/><polyline points="26.0,249.4 66.4,249.4" fill="none" stroke="#9aa7b8" stroke-width="1"/><polyline points="66.4,249.4 106.7,249.4" fill="none" stroke="#9aa7b8" stroke-width="1"/><polyline points="106.7,249.4 147.1,249.4" fill="none" stroke="#9aa7b8" stroke-width="1"/><polyline points="147.1,249.4 187.5,249.4" fill="none" stroke="#9aa7b8" stroke-width="1"/><polyline points="187.5,249.4 227.8,249.4" fill="none" stroke="#9aa7b8" stroke-width="1"/><polyline points="227.8,249.4 268.2,249.4" fill="none" stroke="#9aa7b8" stroke-width="1"/><polyline points="268.2,249.4 308.5,249.4" fill="none" stroke="#9aa7b8" stroke-width="1"/><polyline points="308.5,249.4 348.9,249.4" fill="none" stroke="#9aa7b8" stroke-width="1"/><polyline points="348.9,249.4 389.3,249.4" fill="none" stroke="#9aa7b8" stroke-width="1"/><polyline points="389.3,249.4 429.6,249.4" fill="none" stroke="#9aa7b8" stroke-width="1"/><polyline points="429.6,249.4 470.0,249.4" fill="none" stroke="#9aa7b8" stroke-width="1"/><polyline points="470.0,249.4 510.4,249.4" fill="none" stroke="#9aa7b8" stroke-width="1"/><polyline points="510.4,249.4 550.7,249.4" fill="none" stroke="#9aa7b8" stroke-width="1"/><polyline points="550.7,249.4 591.1,249.4" fill="none" stroke="#9aa7b8" stroke-width="1"/><polyline points="591.1,249.4 631.5,249.4" fill="none" stroke="#9aa7b8" stroke-width="1"/><polyline points="631.5,249.4 671.8,249.4" fill="none" stroke="#9aa7b8" stroke-width="1"/><polyline points="671.8,249.4 712.2,249.4" fill="none" stroke="#9aa7b8" stroke-width="1"/><polyline points="712.2,249.4 752.5,249.4" fill="none" stroke="#9aa7b8" stroke-width="1"/><polyline points="752.5,249.4 792.9,249.4" fill="none" stroke="#9aa7b8" stroke-width="1"/><polyline points="792.9,249.4 833.3,249.4" fill="none" stroke="#9aa7b8" stroke-width="1"/><polyline points="833.3,249.4 873.6,249.4" fill="none" stroke="#9aa7b8" stroke-width="1"/><polyline points="873.6,249.4 914.0,249.4" fill="none" stroke="#9aa7b8" stroke-width="1"/><polyline points="66.4,220.5 187.5,249.4" fill="none" stroke="#9aa7b8" stroke-width="1"/><polyline points="106.7,195.5 227.8,249.4" fill="none" stroke="#9aa7b8" stroke-width="1"/><polyline points="147.1,174.0 268.2,249.4" fill="none" stroke="#9aa7b8" stroke-width="1"/><polyline points="187.5,155.5 66.4,249.4" fill="none" stroke="#9aa7b8" stroke-width="1"/><polyline points="187.5,155.5 308.5,249.4" fill="none" stroke="#9aa7b8" stroke-width="1"/><polyline points="227.8,139.9 106.7,249.4" fill="none" stroke="#9aa7b8" stroke-width="1"/><polyline points="227.8,139.9 348.9,249.4" fill="none" stroke="#9aa7b8" stroke-width="1"/><polyline points="268.2,127.0 147.1,249.4" fill="none" stroke="#9aa7b8" stroke-width="1"/><polyline points="268.2,127.0 389.3,249.4" fill="none" stroke="#9aa7b8" stroke-width="1"/><polyline points="308.5,116.6 187.5,249.4" fill="none" stroke="#9aa7b8" stroke-width="1"/><polyline points="308.5,116.6 429.6,249.4" fill="none" stroke="#9aa7b8" stroke-width="1"/><polyline points="348.9,108.6 227.8,249.4" fill="none" stroke="#9aa7b8" stroke-width="1"/><polyline points="348.9,108.6 470.0,249.4" fill="none" stroke="#9aa7b8" stroke-width="1"/><polyline points="389.3,103.0 268.2,249.4" fill="none" stroke="#9aa7b8" stroke-width="1"/><polyline points="389.3,103.0 510.4,249.4" fill="none" stroke="#9aa7b8" stroke-width="1"/><polyline points="429.6,99.6 308.5,249.4" fill="none" stroke="#9aa7b8" stroke-width="1"/><polyline points="429.6,99.6 550.7,249.4" fill="none" stroke="#9aa7b8" stroke-width="1"/><polyline points="470.0,98.5 348.9,249.4" fill="none" stroke="#9aa7b8" stroke-width="1"/><polyline points="470.0,98.5 591.1,249.4" fill="none" stroke="#9aa7b8" stroke-width="1"/><polyline points="510.4,99.6 389.3,249.4" fill="none" stroke="#9aa7b8" stroke-width="1"/><polyline points="510.4,99.6 631.5,249.4" fill="none" stroke="#9aa7b8" stroke-width="1"/><polyline points="550.7,103.0 429.6,249.4" fill="none" stroke="#9aa7b8" stroke-width="1"/><polyline points="550.7,103.0 671.8,249.4" fill="none" stroke="#9aa7b8" stroke-width="1"/><polyline points="591.1,108.6 470.0,249.4" fill="none" stroke="#9aa7b8" stroke-width="1"/><polyline points="591.1,108.6 712.2,249.4" fill="none" stroke="#9aa7b8" stroke-width="1"/><polyline points="631.5,116.6 510.4,249.4" fill="none" stroke="#9aa7b8" stroke-width="1"/><polyline points="631.5,116.6 752.5,249.4" fill="none" stroke="#9aa7b8" stroke-width="1"/><polyline points="671.8,127.0 550.7,249.4" fill="none" stroke="#9aa7b8" stroke-width="1"/><polyline points="671.8,127.0 792.9,249.4" fill="none" stroke="#9aa7b8" stroke-width="1"/><polyline points="712.2,139.9 591.1,249.4" fill="none" stroke="#9aa7b8" stroke-width="1"/><polyline points="712.2,139.9 833.3,249.4" fill="none" stroke="#9aa7b8" stroke-width="1"/><polyline points="752.5,155.5 631.5,249.4" fill="none" stroke="#9aa7b8" stroke-width="1"/><polyline points="752.5,155.5 873.6,249.4" fill="none" stroke="#9aa7b8" stroke-width="1"/><polyline points="792.9,174.0 671.8,249.4" fill="none" stroke="#9aa7b8" stroke-width="1"/><polyline points="833.3,195.5 712.2,249.4" fill="none" stroke="#9aa7b8" stroke-width="1"/><polyline points="873.6,220.5 752.5,249.4" fill="none" stroke="#9aa7b8" stroke-width="1"/><polyline points="26.0,249.4 61.2,209.0" fill="none" stroke="#2563eb" stroke-width="2"/><polyline points="61.2,209.0 100.2,177.1" fill="none" stroke="#2563eb" stroke-width="2"/><polyline points="100.2,177.1 138.9,147.1" fill="none" stroke="#2563eb" stroke-width="2"/><polyline points="138.9,147.1 177.3,118.2" fill="none" stroke="#2563eb" stroke-width="2"/><polyline points="177.3,118.2 215.0,88.7" fill="none" stroke="#2563eb" stroke-width="2"/><polyline points="215.0,88.7 253.2,61.2" fill="none" stroke="#2563eb" stroke-width="2"/><polyline points="253.2,61.2 293.3,40.5" fill="none" stroke="#2563eb" stroke-width="2"/><polyline points="293.3,40.5 335.3,29.3" fill="none" stroke="#2563eb" stroke-width="2"/><polyline points="335.3,29.3 378.3,26.0" fill="none" stroke="#2563eb" stroke-width="2"/><polyline points="378.3,26.0 421.2,26.7" fill="none" stroke="#2563eb" stroke-width="2"/><polyline points="421.2,26.7 463.9,27.6" fill="none" stroke="#2563eb" stroke-width="2"/><polyline points="463.9,27.6 506.5,26.9" fill="none" stroke="#2563eb" stroke-width="2"/><polyline points="506.5,26.9 549.4,26.4" fill="none" stroke="#2563eb" stroke-width="2"/><polyline points="549.4,26.4 592.4,29.7" fill="none" stroke="#2563eb" stroke-width="2"/><polyline points="592.4,29.7 634.4,41.1" fill="none" stroke="#2563eb" stroke-width="2"/><polyline points="634.4,41.1 674.4,61.9" fill="none" stroke="#2563eb" stroke-width="2"/><polyline points="674.4,61.9 712.6,89.5" fill="none" stroke="#2563eb" stroke-width="2"/><polyline points="712.6,89.5 750.3,119.0" fill="none" stroke="#2563eb" stroke-width="2"/><polyline points="750.3,119.0 788.7,148.0" fill="none" stroke="#2563eb" stroke-width="2"/><polyline points="788.7,148.0 827.4,177.9" fill="none" stroke="#2563eb" stroke-width="2"/><polyline points="827.4,177.9 866.6,209.6" fill="none" stroke="#2563eb" stroke-width="2"/><polyline points="866.6,209.6 902.1,249.4" fill="none" stroke="#2563eb" stroke-width="2"/><polyline points="26.0,249.4 65.8,219.9" fill="none" stroke="#2563eb" stroke-width="2"/><polyline points="65.8,219.9 105.6,189.2" fill="none" stroke="#2563eb" stroke-width="2"/><polyline points="105.6,189.2 145.5,167.8" fill="none" stroke="#2563eb" stroke-width="2"/><polyline points="145.5,167.8 185.4,159.7" fill="none" stroke="#2563eb" stroke-width="2"/><polyline points="185.4,159.7 225.2,161.7" fill="none" stroke="#2563eb" stroke-width="2"/><polyline points="225.2,161.7 265.0,166.2" fill="none" stroke="#2563eb" stroke-width="2"/><polyline points="265.0,166.2 304.8,166.9" fill="none" stroke="#2563eb" stroke-width="2"/><polyline points="304.8,166.9 344.6,161.7" fill="none" stroke="#2563eb" stroke-width="2"/><polyline points="344.6,161.7 384.4,152.8" fill="none" stroke="#2563eb" stroke-width="2"/><polyline points="384.4,152.8 424.1,144.7" fill="none" stroke="#2563eb" stroke-width="2"/><polyline points="424.1,144.7 463.9,141.5" fill="none" stroke="#2563eb" stroke-width="2"/><polyline points="463.9,141.5 503.7,144.9" fill="none" stroke="#2563eb" stroke-width="2"/><polyline points="503.7,144.9 543.5,153.1" fill="none" stroke="#2563eb" stroke-width="2"/><polyline points="543.5,153.1 583.2,162.2" fill="none" stroke="#2563eb" stroke-width="2"/><polyline points="583.2,162.2 623.0,167.6" fill="none" stroke="#2563eb" stroke-width="2"/><polyline points="623.0,167.6 662.9,167.1" fill="none" stroke="#2563eb" stroke-width="2"/><polyline points="662.9,167.1 702.7,162.6" fill="none" stroke="#2563eb" stroke-width="2"/><polyline points="702.7,162.6 742.6,160.5" fill="none" stroke="#2563eb" stroke-width="2"/><polyline points="742.6,160.5 782.5,168.5" fill="none" stroke="#2563eb" stroke-width="2"/><polyline points="782.5,168.5 822.4,189.8" fill="none" stroke="#2563eb" stroke-width="2"/><polyline points="822.4,189.8 862.3,220.3" fill="none" stroke="#2563eb" stroke-width="2"/><polyline points="862.3,220.3 902.1,249.4" fill="none" stroke="#2563eb" stroke-width="2"/><polyline points="61.2,209.0 185.4,159.7" fill="none" stroke="#2563eb" stroke-width="2"/><polyline points="100.2,177.1 225.2,161.7" fill="none" stroke="#2563eb" stroke-width="2"/><polyline points="138.9,147.1 265.0,166.2" fill="none" stroke="#2563eb" stroke-width="2"/><polyline points="177.3,118.2 65.8,219.9" fill="none" stroke="#2563eb" stroke-width="2"/><polyline points="177.3,118.2 304.8,166.9" fill="none" stroke="#2563eb" stroke-width="2"/><polyline points="215.0,88.7 105.6,189.2" fill="none" stroke="#2563eb" stroke-width="2"/><polyline points="215.0,88.7 344.6,161.7" fill="none" stroke="#2563eb" stroke-width="2"/><polyline points="253.2,61.2 145.5,167.8" fill="none" stroke="#2563eb" stroke-width="2"/><polyline points="253.2,61.2 384.4,152.8" fill="none" stroke="#2563eb" stroke-width="2"/><polyline points="293.3,40.5 185.4,159.7" fill="none" stroke="#2563eb" stroke-width="2"/><polyline points="293.3,40.5 424.1,144.7" fill="none" stroke="#2563eb" stroke-width="2"/><polyline points="335.3,29.3 225.2,161.7" fill="none" stroke="#2563eb" stroke-width="2"/><polyline points="335.3,29.3 463.9,141.5" fill="none" stroke="#2563eb" stroke-width="2"/><polyline points="378.3,26.0 265.0,166.2" fill="none" stroke="#2563eb" stroke-width="2"/><polyline points="378.3,26.0 503.7,144.9" fill="none" stroke="#2563eb" stroke-width="2"/><polyline points="421.2,26.7 304.8,166.9" fill="none" stroke="#2563eb" stroke-width="2"/><polyline points="421.2,26.7 543.5,153.1" fill="none" stroke="#2563eb" stroke-width="2"/><polyline points="463.9,27.6 344.6,161.7" fill="none" stroke="#2563eb" stroke-width="2"/><polyline points="463.9,27.6 583.2,162.2" fill="none" stroke="#2563eb" stroke-width="2"/><polyline points="506.5,26.9 384.4,152.8" fill="none" stroke="#2563eb" stroke-width="2"/><polyline points="506.5,26.9 623.0,167.6" fill="none" stroke="#2563eb" stroke-width="2"/><polyline points="549.4,26.4 424.1,144.7" fill="none" stroke="#2563eb" stroke-width="2"/><polyline points="549.4,26.4 662.9,167.1" fill="none" stroke="#2563eb" stroke-width="2"/><polyline points="592.4,29.7 463.9,141.5" fill="none" stroke="#2563eb" stroke-width="2"/><polyline points="592.4,29.7 702.7,162.6" fill="none" stroke="#2563eb" stroke-width="2"/><polyline points="634.4,41.1 503.7,144.9" fill="none" stroke="#2563eb" stroke-width="2"/><polyline points="634.4,41.1 742.6,160.5" fill="none" stroke="#2563eb" stroke-width="2"/><polyline points="674.4,61.9 543.5,153.1" fill="none" stroke="#2563eb" stroke-width="2"/><polyline points="674.4,61.9 782.5,168.5" fill="none" stroke="#2563eb" stroke-width="2"/><polyline points="712.6,89.5 583.2,162.2" fill="none" stroke="#2563eb" stroke-width="2"/><polyline points="712.6,89.5 822.4,189.8" fill="none" stroke="#2563eb" stroke-width="2"/><polyline points="750.3,119.0 623.0,167.6" fill="none" stroke="#2563eb" stroke-width="2"/><polyline points="750.3,119.0 862.3,220.3" fill="none" stroke="#2563eb" stroke-width="2"/><polyline points="788.7,148.0 662.9,167.1" fill="none" stroke="#2563eb" stroke-width="2"/><polyline points="827.4,177.9 702.7,162.6" fill="none" stroke="#2563eb" stroke-width="2"/><polyline points="866.6,209.6 742.6,160.5" fill="none" stroke="#2563eb" stroke-width="2"/><rect x="22.0" y="245.4" width="8" height="8" fill="#0f766e" stroke="#fff" stroke-width="0.8"/><rect x="910.0" y="245.4" width="8" height="8" fill="#0f766e" stroke="#fff" stroke-width="0.8"/></svg>